
<!-- Generator: visioncortex VTracer 0.6.4 -->
<svg version="1.1" xmlns="http://www.w3.org/2000/svg" viewBox="0 0 1935 630" preserveAspectRatio="xMidYMid meet">
<path d="M0 0 C638.55 0 1277.1 0 1935 0 C1935 207.9 1935 415.8 1935 630 C1296.45 630 657.9 630 0 630 C0 422.1 0 214.2 0 0 Z " fill="#FDFDFD" transform="translate(0,0)"/>
<path d="M0 0 C2.119 1.113 4.233 2.121 6.414 3.102 C7.096 3.41 7.778 3.718 8.481 4.035 C9.864 4.657 11.25 5.274 12.638 5.885 C14.31 6.645 15.943 7.489 17.566 8.348 C17.566 9.008 17.566 9.668 17.566 10.348 C19.144 10.564 19.144 10.564 20.754 10.785 C24.681 11.365 26.269 12.291 29.566 14.348 C31.541 15.32 33.527 16.268 35.523 17.195 C36.635 17.718 37.747 18.241 38.893 18.779 C41.234 19.875 43.578 20.966 45.924 22.053 C47.582 22.835 47.582 22.835 49.273 23.633 C50.289 24.106 51.305 24.579 52.351 25.067 C53.082 25.489 53.813 25.912 54.566 26.348 C54.566 27.008 54.566 27.668 54.566 28.348 C56.728 29.238 56.728 29.238 59.379 29.91 C60.272 30.159 61.166 30.408 62.086 30.664 C62.904 30.89 63.723 31.115 64.566 31.348 C65.556 31.678 66.546 32.008 67.566 32.348 C70.154 31.931 70.154 31.931 73.004 31.133 C74.064 30.859 75.123 30.585 76.215 30.303 C77.321 30.008 78.427 29.714 79.566 29.41 C81.753 28.835 83.941 28.264 86.129 27.695 C87.1 27.438 88.07 27.18 89.07 26.914 C91.566 26.348 91.566 26.348 94.566 26.348 C94.566 25.688 94.566 25.028 94.566 24.348 C97.383 23.348 97.383 23.348 101.129 22.348 C102.956 21.853 102.956 21.853 104.82 21.348 C106.057 21.018 107.293 20.688 108.566 20.348 C112.988 19.107 117.375 17.792 121.754 16.41 C127.002 14.781 132.262 13.386 137.617 12.156 C140.726 11.355 140.726 11.355 144.26 9.936 C148.262 8.422 152.293 7.224 156.426 6.121 C157.137 5.928 157.849 5.735 158.582 5.536 C160.826 4.928 163.071 4.325 165.316 3.723 C166.836 3.312 168.356 2.9 169.875 2.488 C180.888 -0.491 180.888 -0.491 185.566 -1.652 C185.744 5.413 185.866 12.478 185.951 19.545 C185.986 21.95 186.034 24.355 186.094 26.759 C186.179 30.212 186.219 33.663 186.25 37.117 C186.286 38.195 186.322 39.274 186.359 40.384 C186.361 43.208 186.319 45.626 185.566 48.348 C182.279 50.485 182.279 50.485 178.566 51.348 C177.836 51.56 177.106 51.773 176.354 51.992 C175.736 52.118 175.117 52.245 174.48 52.375 C173.782 52.525 173.084 52.675 172.364 52.83 C171.289 53.055 171.289 53.055 170.191 53.285 C164.736 54.494 159.823 55.87 154.789 58.344 C147.952 61.432 140.464 63.163 133.191 64.91 C128.732 65.99 124.766 67.481 120.566 69.348 C112.073 72.212 103.452 74.213 94.566 75.348 C94.832 76.135 95.097 76.923 95.371 77.734 C97.567 84.508 99.152 91.007 99.977 98.082 C100.462 100.77 101.098 102.958 102.015 105.504 C103.542 110.015 104.341 114.402 104.973 119.109 C106.506 129.578 108.74 139.844 111.066 150.16 C111.461 151.93 111.856 153.7 112.25 155.471 C112.824 158.052 113.4 160.633 113.979 163.213 C115.336 169.267 116.628 175.331 117.873 181.409 C118.525 184.381 118.525 184.381 119.574 187.326 C120.612 190.487 121.217 193.526 121.781 196.805 C123.953 208.904 126.633 220.903 129.237 232.915 C129.987 236.375 130.73 239.836 131.473 243.297 C132.189 246.631 132.911 249.964 133.633 253.297 C133.897 254.533 134.162 255.77 134.435 257.044 C134.685 258.193 134.936 259.342 135.194 260.526 C135.411 261.533 135.629 262.539 135.853 263.576 C136.551 266.29 137.517 268.754 138.566 271.348 C138.992 273.87 139.358 276.375 139.691 278.91 C141.807 293.617 145.402 308.079 148.706 322.554 C149.393 325.583 150.06 328.616 150.715 331.652 C151.372 334.503 152.096 337.122 153.129 339.848 C154.448 343.64 155.045 347.211 155.355 351.207 C155.496 353.389 155.496 353.389 156.264 355.548 C156.677 359.368 155.283 361.958 153.621 365.289 C153.3 365.961 152.979 366.632 152.648 367.324 C151.591 369.526 150.516 371.718 149.441 373.91 C148.703 375.442 147.966 376.975 147.23 378.509 C145.733 381.627 144.231 384.743 142.725 387.857 C139.638 394.257 136.664 400.707 133.691 407.16 C130.694 413.658 127.682 420.145 124.539 426.574 C124.068 427.543 123.596 428.511 123.111 429.509 C122.236 431.299 121.352 433.086 120.459 434.868 C117.644 440.34 117.644 440.34 117.566 446.348 C120.004 449.035 120.004 449.035 122.566 451.348 C122.566 452.008 122.566 452.668 122.566 453.348 C123.682 453.785 123.682 453.785 124.82 454.23 C127.873 455.472 129.286 456.818 131.504 459.223 C134.635 462.477 137.689 464.988 141.566 467.348 C142.695 468.093 143.82 468.843 144.941 469.598 C146.241 470.464 146.241 470.464 147.566 471.348 C147.154 470.378 146.741 469.409 146.316 468.41 C146.047 467.766 145.778 467.121 145.5 466.457 C144.591 464.334 144.591 464.334 143.477 462.301 C140.223 455.956 140.137 450.393 140.566 443.348 C141.226 443.348 141.886 443.348 142.566 443.348 C142.628 442.667 142.69 441.986 142.754 441.285 C144.015 436.727 146.846 434.163 150.566 431.348 C153.813 429.712 157.128 428.514 160.566 427.348 C162.216 426.688 163.866 426.028 165.566 425.348 C172.496 425.348 179.426 425.348 186.566 425.348 C186.566 461.648 186.566 497.948 186.566 535.348 C168.021 534.189 168.021 534.189 160.629 532.035 C159.826 531.812 159.023 531.589 158.196 531.36 C152.75 529.805 147.592 527.983 142.566 525.348 C141.887 525.019 141.208 524.69 140.508 524.352 C134.209 521.291 128.554 518.336 123.566 513.348 C119.889 510.722 116.069 508.308 112.262 505.875 C106.958 502.434 102.186 498.664 97.566 494.348 C96.997 493.826 96.427 493.304 95.84 492.766 C94.566 491.348 94.566 491.348 94.566 489.348 C93.245 488.658 91.908 487.997 90.566 487.348 C88.851 486.071 87.165 484.756 85.504 483.41 C84.647 482.721 83.789 482.031 82.906 481.32 C79.096 478.108 79.096 478.108 77.566 476.348 C77.566 475.688 77.566 475.028 77.566 474.348 C76.82 474.052 76.074 473.757 75.305 473.453 C72.314 472.246 70.936 470.999 68.754 468.66 C66.046 465.835 63.299 463.193 60.316 460.66 C57.336 458.102 55.022 455.417 52.566 452.348 C50.691 450.604 48.757 448.94 46.812 447.273 C41.388 442.623 36.106 437.811 30.91 432.906 C22.112 424.577 22.112 424.577 12.69 416.971 C5.44 411.429 -1.087 404.964 -7.697 398.689 C-11.172 395.409 -14.695 392.328 -18.434 389.348 C-19.633 387.889 -20.831 386.43 -22.016 384.961 C-24.145 382.539 -26.577 380.528 -29.023 378.434 C-37.749 370.882 -46.038 362.895 -54.057 354.6 C-57.637 350.948 -61.334 347.87 -65.468 344.866 C-68.745 342.335 -71.563 339.385 -74.434 336.41 C-78.661 332.102 -82.906 327.944 -87.52 324.047 C-89.895 321.938 -92.088 319.682 -94.309 317.41 C-97.55 314.119 -100.832 311.159 -104.496 308.348 C-110.044 304.046 -116.25 298.716 -119.434 292.348 C-120.152 286.6 -118.147 281.359 -115.434 276.348 C-114.774 276.348 -114.114 276.348 -113.434 276.348 C-112.651 274.584 -112.651 274.584 -112.059 272.348 C-110.839 268.397 -109.27 264.924 -107.344 261.277 C-106.419 259.317 -105.843 257.445 -105.309 255.348 C-105.02 254.358 -104.731 253.368 -104.434 252.348 C-103.774 252.348 -103.114 252.348 -102.434 252.348 C-101.65 250.619 -101.65 250.619 -101.059 248.41 C-99.914 244.501 -98.382 240.887 -96.709 237.182 C-95.144 233.704 -93.614 230.21 -92.086 226.715 C-91.786 226.029 -91.486 225.343 -91.177 224.637 C-90.556 223.218 -89.935 221.8 -89.315 220.381 C-88.37 218.22 -87.424 216.059 -86.479 213.898 C-85.868 212.504 -85.258 211.109 -84.648 209.715 C-84.37 209.079 -84.092 208.444 -83.805 207.789 C-82.467 204.728 -81.139 201.664 -79.829 198.592 C-78.416 195.306 -76.905 192.079 -75.371 188.848 C-73.702 185.276 -72.157 181.859 -71.184 178.035 C-70.936 177.148 -70.689 176.261 -70.434 175.348 C-69.774 175.348 -69.114 175.348 -68.434 175.348 C-67.65 173.619 -67.65 173.619 -67.059 171.41 C-65.803 167.324 -64.22 163.597 -62.301 159.781 C-59.654 152.353 -60.681 147.012 -63.188 139.793 C-63.485 138.893 -63.783 137.992 -64.09 137.064 C-65.044 134.195 -66.019 131.334 -66.996 128.473 C-67.626 126.59 -68.254 124.708 -68.881 122.824 C-71.289 115.609 -73.704 108.397 -76.238 101.225 C-76.518 100.417 -76.799 99.61 -77.088 98.778 C-77.608 97.283 -78.138 95.791 -78.679 94.303 C-81.663 85.66 -80.884 76.821 -77.434 68.348 C-76.774 68.348 -76.114 68.348 -75.434 68.348 C-75.191 66.445 -74.957 64.541 -74.765 62.633 C-74.235 58.977 -72.918 55.703 -71.559 52.285 C-71.174 51.283 -71.174 51.283 -70.781 50.26 C-69.544 47.06 -68.242 43.91 -66.867 40.766 C-65.477 37.451 -64.387 34.169 -63.371 30.723 C-60.179 19.929 -60.179 19.929 -57.586 17.906 C-56.855 17.536 -56.124 17.166 -55.371 16.785 C-54.56 16.369 -53.749 15.952 -52.914 15.523 C-49.957 14.122 -46.97 12.809 -43.961 11.523 C-39.694 9.538 -35.634 7.166 -31.547 4.836 C-28.438 3.35 -25.805 2.888 -22.434 2.348 C-22.434 1.688 -22.434 1.028 -22.434 0.348 C-14.487 -2.735 -7.68 -4.193 0 0 Z " fill="#68AA6F" transform="translate(120.43359375,46.65234375)"/>
<path d="M0 0 C4.988 0.604 9.552 1.636 14.375 3.109 C15.062 3.318 15.749 3.527 16.457 3.742 C17.906 4.183 19.355 4.627 20.803 5.073 C22.965 5.739 25.129 6.398 27.293 7.055 C34.251 9.176 41.175 11.373 48.066 13.703 C53.001 15.363 57.865 16.834 62.938 18 C68.697 19.378 74.341 20.966 79.98 22.786 C84.858 24.353 89.761 25.817 94.68 27.25 C96.756 27.859 98.833 28.468 100.91 29.077 C102.303 29.484 103.698 29.888 105.093 30.288 C107.064 30.855 109.032 31.432 111 32.012 C112.155 32.346 113.31 32.681 114.5 33.026 C115.325 33.348 116.15 33.669 117 34 C117 34.66 117 35.32 117 36 C124.038 34.115 129.86 30.954 136.122 27.337 C140.294 24.934 144.447 22.804 148.891 20.941 C152.32 19.411 155.554 17.532 158.836 15.711 C164.492 12.653 170.266 9.828 176.029 6.979 C178.769 5.618 181.501 4.24 184.232 2.861 C190.939 -0.405 197.169 -1.066 204.25 1.188 C205.84 1.774 207.423 2.38 209 3 C209.871 3.329 210.743 3.657 211.641 3.996 C220.791 7.609 229.398 12.256 238 17 C238.909 17.482 239.818 17.964 240.754 18.461 C246.033 22.078 247.748 26.455 249.125 32.5 C250.368 37.716 250.368 37.716 252.117 42.781 C253 45 253 45 253 48 C253.66 48 254.32 48 255 48 C255.73 49.693 255.73 49.693 256.402 52.059 C256.778 53.351 256.778 53.351 257.162 54.67 C257.418 55.583 257.674 56.497 257.938 57.438 C258.445 59.207 258.954 60.977 259.465 62.746 C259.715 63.62 259.965 64.494 260.222 65.394 C261.2 68.669 262.306 71.89 263.451 75.11 C264 77 264 77 264 80 C264.66 80 265.32 80 266 80 C266.669 87.823 264.245 94.235 261.688 101.562 C261.241 102.875 260.795 104.188 260.35 105.501 C257.95 112.548 255.446 119.555 252.887 126.547 C252.379 127.945 251.87 129.342 251.363 130.74 C250.394 133.403 249.406 136.057 248.405 138.707 C245.937 145.445 244.394 150.815 245 158 C245.66 158 246.32 158 247 158 C247.938 160.254 247.938 160.254 249 163.562 C251.32 170.477 254.134 177.136 257.062 183.812 C257.486 184.778 257.909 185.744 258.346 186.739 C259.922 190.318 261.506 193.894 263.1 197.466 C265.057 201.852 266.958 206.256 268.812 210.688 C270.827 215.422 272.997 220.001 275.375 224.562 C278.774 231.233 281.404 238.089 284.015 245.1 C287.872 255.429 292.163 265.491 297.188 275.312 C304.448 289.677 304.448 289.677 303.547 294.348 C301.22 298.337 298.051 301.301 294.75 304.5 C294.094 305.151 293.438 305.802 292.762 306.473 C288.986 310.188 285.102 313.65 281 317 C279.311 318.644 277.647 320.314 276 322 C274.649 323.378 273.295 324.753 271.938 326.125 C271.287 326.788 270.636 327.45 269.965 328.133 C264.843 333 264.843 333 262 333 C261.715 333.58 261.43 334.16 261.137 334.758 C259.753 337.486 258.13 338.88 255.812 340.875 C250.551 345.485 245.442 350.238 240.355 355.039 C229.747 365 229.747 365 227 365 C226.755 365.53 226.51 366.06 226.258 366.605 C224.414 370.115 221.693 372.559 218.875 375.312 C218.284 375.896 217.693 376.479 217.084 377.08 C212.387 381.685 207.539 386.035 202.498 390.259 C195.419 396.203 188.592 402.243 182.12 408.848 C178.896 412.133 175.562 415.181 172.059 418.16 C169.435 420.505 166.97 422.997 164.5 425.5 C160.822 429.223 157.073 432.791 153.094 436.191 C149.633 439.181 146.279 442.287 142.906 445.375 C140.676 447.389 138.429 449.371 136.16 451.34 C131.989 454.981 127.955 458.753 123.938 462.562 C122.448 463.97 120.959 465.378 119.469 466.785 C118.725 467.488 117.981 468.191 117.215 468.915 C113.178 472.716 109.109 476.483 105.046 480.256 C101.833 483.251 98.689 486.289 95.625 489.438 C92.46 492.65 89.074 495.376 85.477 498.09 C82.621 500.292 79.878 502.608 77.125 504.938 C68.784 511.925 60.254 518.911 50.113 523.059 C48.54 523.76 46.999 524.535 45.48 525.348 C30.713 533.247 14.7 537 -2 537 C-2 500.7 -2 464.4 -2 427 C28.075 427 28.075 427 39.223 436.992 C41.495 439.559 41.546 441.667 42 445 C42.66 445 43.32 445 44 445 C44.937 456.748 41.175 464.71 36 475 C42.907 470.217 49.262 465.123 55.414 459.402 C58.367 456.659 61.393 454.011 64.441 451.375 C65.667 450.293 66.844 449.156 68 448 C67.904 444.054 66.703 441.287 64.762 437.949 C61.884 432.869 59.363 427.655 56.875 422.375 C56.446 421.473 56.016 420.57 55.574 419.641 C53.28 414.799 51.092 409.932 49 405 C48.05 402.913 47.092 400.83 46.125 398.75 C43.389 392.845 40.682 386.929 38 381 C37.662 380.265 37.325 379.53 36.977 378.773 C35.955 376.527 34.971 374.268 34 372 C33.327 370.449 33.327 370.449 32.641 368.867 C27.654 356.793 28.008 346.725 33.039 334.469 C34.109 331.719 34.568 329.166 35 326.25 C35.77 321.107 36.848 316.068 38 311 C38.627 308.2 39.251 305.399 39.875 302.598 C40.224 301.032 40.573 299.466 40.922 297.9 C41.099 297.105 41.276 296.309 41.459 295.49 C41.819 293.873 42.18 292.257 42.541 290.641 C45.144 278.991 45.144 278.991 47.539 267.297 C48.449 262.764 49.478 258.258 50.5 253.75 C50.713 252.796 50.925 251.842 51.145 250.859 C51.355 249.931 51.565 249.003 51.781 248.047 C51.968 247.22 52.154 246.394 52.346 245.542 C53 243 53 243 54.004 240.044 C54.964 237.11 55.601 234.289 56.148 231.254 C56.347 230.176 56.546 229.099 56.751 227.989 C56.957 226.858 57.163 225.727 57.375 224.562 C58.976 215.973 60.781 207.586 63.164 199.18 C64.237 195.1 64.872 191.007 65.504 186.84 C66.157 183.101 67.151 179.503 68.219 175.863 C69.874 169.796 71.09 163.663 72.141 157.466 C74.274 144.979 76.973 132.621 79.688 120.25 C79.892 119.316 80.096 118.382 80.306 117.42 C80.892 114.743 81.482 112.066 82.074 109.391 C82.253 108.574 82.432 107.757 82.617 106.916 C83.884 101.232 83.884 101.232 85 99 C85.344 97.172 85.651 95.338 85.938 93.5 C86.826 87.969 87.86 82.484 89 77 C87.824 76.897 86.649 76.794 85.438 76.688 C81.23 76.171 77.887 74.705 74 73 C71.582 72.434 69.168 71.956 66.723 71.527 C65.87 71.266 65.87 71.266 65 71 C65 70.34 65 69.68 65 69 C63.218 68.638 63.218 68.638 61 68.562 C57.016 68.209 53.89 67.326 50.215 65.812 C47.595 64.851 44.97 64.248 42.25 63.625 C38.025 62.616 34.218 61.325 30.25 59.562 C24.241 56.93 18.234 55.439 11.859 53.992 C10.586 53.665 9.312 53.337 8 53 C7.307 52.882 6.614 52.764 5.901 52.642 C3.517 52.07 1.941 51.514 0 50 C-1.18 46.283 -0.929 42.635 -0.781 38.77 C-0.77 37.664 -0.759 36.558 -0.747 35.419 C-0.702 31.882 -0.602 28.349 -0.5 24.812 C-0.46 22.417 -0.423 20.022 -0.391 17.627 C-0.302 11.75 -0.168 5.875 0 0 Z " fill="#4E8A9A" transform="translate(317,45)"/>
<path d="M0 0 C0 0.66 0 1.32 0 2 C0.66 2.227 1.32 2.454 2 2.688 C13.734 7.821 24.065 21.886 29.062 33.375 C31.756 40.596 33.554 48.11 35.393 55.584 C35.942 57.769 36.532 59.936 37.137 62.105 C43.405 85.642 42.196 111.213 42.312 135.375 C42.327 137.079 42.327 137.079 42.342 138.817 C42.431 151.174 42.166 163.064 39.731 175.207 C38.987 179.067 38.526 182.841 38.125 186.75 C37.317 193.071 35.578 198.593 33.289 204.523 C31.983 208.045 30.972 211.561 30 215.188 C28.259 221.468 25.882 227.168 23 233 C22.698 233.664 22.397 234.328 22.086 235.012 C21.312 236.688 21.312 236.688 20 239 C19.34 239 18.68 239 18 239 C17.835 239.825 17.67 240.65 17.5 241.5 C17.335 242.325 17.17 243.15 17 244 C16.34 244 15.68 244 15 244 C14.287 245.647 13.63 247.319 13 249 C7.898 258.683 0.578 268.187 -10 272 C-10.99 272.66 -11.98 273.32 -13 274 C-18.312 277.541 -22.224 278.275 -28.625 278.25 C-29.937 278.255 -31.25 278.26 -32.602 278.266 C-36 278 -36 278 -39 276 C-40.217 275.67 -41.434 275.34 -42.688 275 C-43.781 274.67 -44.874 274.34 -46 274 C-46 273.34 -46 272.68 -46 272 C-46.66 272 -47.32 272 -48 272 C-50.322 267.355 -49.4 260.784 -48.125 255.875 C-47.754 254.926 -47.382 253.978 -47 253 C-46.34 253 -45.68 253 -45 253 C-44.597 204.68 -44.597 204.68 -48.497 156.652 C-50.413 142.753 -50.16 128.549 -50.13 114.55 C-50.125 111.504 -50.13 108.457 -50.137 105.41 C-50.141 93.568 -49.757 81.816 -49 70 C-48.208 55.35 -48.213 38.337 -55.055 24.933 C-57.482 19.968 -56.659 13.37 -56 8 C-53.898 3.431 -51.143 0.762 -47 -2 C-31.796 -5.331 -13.943 -8.714 0 0 Z " fill="#090A0A" transform="translate(1514,176)"/>
<path d="M0 0 C16.016 0.17 16.016 0.17 20.866 4.823 C21.316 5.295 21.765 5.767 22.229 6.253 C23.56 6.595 24.893 6.931 26.229 7.253 C26.229 7.913 26.229 8.573 26.229 9.253 C26.765 9.521 27.302 9.789 27.854 10.066 C40.694 16.486 49.136 31.506 53.604 44.628 C54.969 49.135 56.142 53.672 57.229 58.253 C57.536 59.26 57.843 60.267 58.159 61.304 C68.48 97.344 67.265 140.421 63.854 177.503 C63.791 178.208 63.728 178.912 63.663 179.638 C62.872 188.227 62.872 188.227 62.229 191.253 C61.569 191.253 60.909 191.253 60.229 191.253 C59.955 193.101 59.696 194.953 59.51 196.812 C59.204 199.47 58.743 202.065 58.229 204.691 C58.064 205.535 57.899 206.379 57.729 207.249 C57.229 209.253 57.229 209.253 56.229 210.253 C56.147 211.346 56.064 212.439 55.979 213.566 C55.275 219.583 52.709 224.782 50.229 230.253 C49.936 230.915 49.643 231.577 49.342 232.259 C48.419 234.345 47.482 236.425 46.542 238.503 C46.096 239.506 46.096 239.506 45.641 240.529 C44.9 242.134 44.072 243.699 43.229 245.253 C42.569 245.253 41.909 245.253 41.229 245.253 C41.105 245.954 40.982 246.656 40.854 247.378 C40.061 251.027 38.393 253.224 36.229 256.253 C35.528 257.367 34.827 258.481 34.104 259.628 C33.485 260.494 32.867 261.361 32.229 262.253 C31.569 262.253 30.909 262.253 30.229 262.253 C29.734 263.491 29.734 263.491 29.229 264.753 C28.734 265.991 28.734 265.991 28.229 267.253 C27.569 267.253 26.909 267.253 26.229 267.253 C26.229 267.913 26.229 268.573 26.229 269.253 C21.611 274.626 16.413 277.324 9.745 279.429 C7.262 280.153 7.262 280.153 5.288 281.339 C-0.584 283.946 -8.794 282.849 -14.771 280.941 C-17.983 279.683 -20.998 278.333 -23.771 276.253 C-25.327 271.586 -25.173 267.608 -23.776 262.896 C-22.19 256.743 -22.486 250.472 -22.505 244.159 C-22.504 242.768 -22.502 241.376 -22.5 239.984 C-22.497 237.059 -22.501 234.134 -22.51 231.209 C-22.521 227.566 -22.515 223.923 -22.503 220.279 C-22.439 196.408 -23.428 172.697 -25.896 148.941 C-26.991 137.396 -26.959 125.838 -26.958 114.253 C-26.959 113.333 -26.96 112.412 -26.961 111.464 C-26.96 101.251 -26.723 91.114 -26.013 80.926 C-24.834 63.057 -23.494 41.808 -31.771 25.253 C-32.299 19.041 -32.515 13.495 -28.771 8.253 C-24.66 3.947 -21.468 2.591 -15.626 1.613 C-10.453 0.611 -5.743 0.006 0 0 Z " fill="#0A0A0A" transform="translate(908.77099609375,170.746826171875)"/>
<path d="M0 0 C8.372 6.663 14.172 17.584 17.812 27.438 C18.364 28.884 18.364 28.884 18.926 30.359 C20.57 36.329 20.099 42.678 20.062 48.812 C20.074 50.727 20.074 50.727 20.086 52.68 C20.072 59.538 19.743 65.842 17.812 72.438 C17.589 73.261 17.366 74.085 17.137 74.934 C15.043 81.317 12.628 88.622 7.812 93.438 C7.534 94.892 7.534 94.892 7.25 96.375 C5.724 102.327 0.995 107.122 -3.188 111.438 C-3.848 111.438 -4.507 111.438 -5.188 111.438 C-5.617 113.773 -5.617 113.773 -5.188 116.438 C-2.978 118.553 -2.978 118.553 -0.062 120.312 C4.794 123.621 8.32 126.718 11.812 131.438 C11.812 132.097 11.812 132.757 11.812 133.438 C12.473 133.438 13.132 133.438 13.812 133.438 C21.703 142.826 24.02 153.594 26.253 165.375 C26.772 167.721 26.772 167.721 28.812 170.438 C30.319 179.273 29.995 188.504 30 197.438 C30.012 198.714 30.024 199.99 30.037 201.305 C30.049 209.022 30.039 216.978 27.812 224.438 C27.152 224.438 26.493 224.438 25.812 224.438 C25.869 225.273 25.926 226.108 25.984 226.969 C25.336 240.06 15.776 251.659 6.812 260.438 C0.079 266.535 -6.38 270.298 -15.332 272.008 C-17.193 272.266 -17.193 272.266 -18.188 273.438 C-22.076 273.72 -25.978 273.669 -29.875 273.688 C-31.51 273.718 -31.51 273.718 -33.178 273.75 C-39.822 273.782 -44.5 273.458 -49.815 269.104 C-51.572 266.971 -51.562 265.838 -51.562 263.097 C-51.569 262.205 -51.577 261.313 -51.584 260.394 C-51.577 259.413 -51.569 258.432 -51.562 257.421 C-51.568 255.859 -51.568 255.859 -51.574 254.265 C-51.583 250.758 -51.572 247.251 -51.56 243.743 C-51.562 241.235 -51.566 238.727 -51.571 236.219 C-51.579 230.1 -51.574 223.981 -51.562 217.863 C-51.548 210.729 -51.55 203.595 -51.552 196.461 C-51.555 183.718 -51.543 170.975 -51.524 158.233 C-51.505 145.891 -51.498 133.549 -51.503 121.207 C-51.509 107.76 -51.509 94.314 -51.498 80.868 C-51.496 79.43 -51.495 77.993 -51.494 76.555 C-51.493 75.847 -51.493 75.14 -51.492 74.411 C-51.488 69.45 -51.489 64.488 -51.491 59.527 C-51.493 52.826 -51.484 46.125 -51.469 39.424 C-51.464 36.973 -51.463 34.522 -51.466 32.071 C-51.499 -1.42 -51.499 -1.42 -47.536 -6.808 C-34.473 -19.159 -12.3 -8.119 0 0 Z " fill="#0A0A0A" transform="translate(1296.1875,180.5625)"/>
<path d="M0 0 C5.538 3.077 5.538 3.077 7 6 C7.185 7.383 7.321 8.773 7.43 10.164 C7.501 11.027 7.573 11.889 7.646 12.778 C7.722 13.717 7.797 14.657 7.875 15.625 C9.285 32.061 11.447 48.38 13.873 64.693 C15.17 73.694 16.051 82.738 16.91 91.79 C17.525 98.104 18.372 104.266 19.574 110.494 C20.324 114.907 20.425 119.325 20.566 123.791 C20.717 127.297 21.049 130.498 21.969 133.891 C23.234 138.575 23.624 143.235 24 148.062 C24.083 149.059 24.165 150.056 24.25 151.083 C24.896 159.091 25.386 167.107 25.875 175.125 C26.704 188.623 27.812 202.091 29 215.562 C29.126 217.008 29.126 217.008 29.254 218.483 C30.39 231.521 30.39 231.521 32.098 244.492 C33.109 251.196 33.402 257.789 33.438 264.562 C33.47 265.698 33.503 266.833 33.537 268.002 C33.59 276.205 33.59 276.205 30.66 280.152 C25.863 283.484 22.853 284.719 17 284 C13.812 282.819 11.739 281.985 9.688 279.25 C7.725 272.828 7.867 266.262 7.859 259.613 C7.841 257.604 7.821 255.594 7.801 253.584 C7.772 250.437 7.75 247.291 7.75 244.143 C7.746 241.091 7.712 238.04 7.672 234.988 C7.679 234.047 7.686 233.105 7.693 232.135 C7.642 226.791 7.642 226.791 4.74 222.45 C2.224 221.119 0.279 220.305 -2.504 219.805 C-3.327 219.646 -4.15 219.488 -4.998 219.324 C-5.844 219.176 -6.691 219.028 -7.562 218.875 C-9.252 218.565 -10.941 218.25 -12.629 217.93 C-13.372 217.798 -14.115 217.666 -14.881 217.531 C-17 217 -17 217 -19.078 215.958 C-21.907 214.548 -24.426 214.736 -27.562 214.75 C-28.698 214.745 -29.834 214.74 -31.004 214.734 C-34.181 214.775 -34.181 214.775 -37 217 C-37.788 219.71 -38.403 222.301 -38.938 225.062 C-39.279 226.712 -39.621 228.362 -39.965 230.012 C-40.136 230.849 -40.307 231.686 -40.484 232.548 C-41.248 236.176 -42.124 239.773 -43 243.375 C-44.117 247.987 -45.133 252.599 -46 257.266 C-46.168 258.157 -46.335 259.049 -46.508 259.967 C-46.827 261.689 -47.135 263.412 -47.43 265.138 C-48.423 270.492 -49.903 274.488 -53 279 C-53.66 279 -54.32 279 -55 279 C-55 279.66 -55 280.32 -55 281 C-61.116 281.499 -64.069 280.353 -69 277 C-72.319 270.362 -68.552 261.701 -66.812 255.062 C-63.665 242.634 -61.413 230.212 -59.599 217.524 C-59.415 216.25 -59.232 214.976 -59.043 213.664 C-58.889 212.545 -58.734 211.425 -58.575 210.272 C-57.957 206.755 -57.005 203.425 -56 200 C-55.708 198.571 -55.442 197.136 -55.219 195.695 C-55.099 194.946 -54.979 194.197 -54.855 193.426 C-54.738 192.667 -54.621 191.907 -54.5 191.125 C-53.809 186.7 -53.098 182.313 -52.066 177.953 C-50.458 170.921 -49.513 163.754 -48.438 156.625 C-48.106 154.434 -47.774 152.242 -47.439 150.051 C-47.137 148.08 -46.839 146.107 -46.541 144.135 C-46 141 -46 141 -45 138 C-44.776 136.449 -44.588 134.894 -44.422 133.336 C-42.307 114.54 -38.606 96.229 -34.539 77.773 C-34.071 75.364 -33.798 73.068 -33.625 70.625 C-33.183 65.927 -31.695 61.664 -30.217 57.2 C-27.96 50.222 -26.28 43.126 -24.562 36 C-17.592 7.516 -17.592 7.516 -10 1 C-6.381 -0.206 -3.808 -0.323 0 0 Z " fill="#080909" transform="translate(1406,171)"/>
<path d="M0 0 C0.828 0.005 1.655 0.011 2.508 0.017 C3.368 0.051 4.227 0.086 5.113 0.121 C6 0.141 6.887 0.162 7.801 0.183 C24.211 0.693 24.211 0.693 28.801 4.559 C29.337 5.219 29.873 5.879 30.426 6.559 C31.574 6.955 31.574 6.955 32.746 7.359 C37.999 9.71 40.994 15.093 44.426 19.559 C44.926 20.137 45.426 20.716 45.941 21.312 C58.251 36.232 56.341 60.677 55.426 78.559 C54.226 90.834 51.358 102.253 46.426 113.559 C45.522 115.93 44.626 118.305 43.738 120.684 C42.495 123.996 41.395 126.605 39.426 129.559 C37.753 134.509 36.972 139.3 36.676 144.496 C36.634 145.207 36.592 145.918 36.55 146.65 C36.359 150.851 36.501 154.348 37.824 158.316 C38.715 161.637 38.993 165.024 39.363 168.434 C39.986 173.92 40.963 179.025 42.699 184.27 C44.817 190.941 45.654 197.76 46.082 204.723 C46.195 205.329 46.309 205.934 46.426 206.559 C47.086 206.559 47.746 206.559 48.426 206.559 C49.064 208.328 49.064 208.328 49.609 210.801 C49.815 211.703 50.021 212.605 50.232 213.535 C50.545 214.97 50.545 214.97 50.863 216.434 C52.289 222.838 53.852 229.122 55.785 235.393 C56.517 237.868 57.025 240.322 57.426 242.871 C59.231 254.249 59.231 254.249 63.113 264.996 C65.424 271.268 65.573 278.963 63.531 285.363 C62.426 287.559 62.426 287.559 60.426 289.559 C56.042 290.239 51.393 290.563 47.367 288.508 C45.738 287.184 45.738 287.184 43.426 284.559 C43.426 283.899 43.426 283.239 43.426 282.559 C42.766 282.559 42.106 282.559 41.426 282.559 C40.053 279.812 40.045 277.326 39.777 274.266 C39.659 272.995 39.54 271.725 39.418 270.416 C39.233 268.4 39.052 266.384 38.879 264.367 C38.253 257.144 37.614 251.076 34.426 244.559 C33.802 241.918 33.255 239.35 32.801 236.684 C32.675 235.985 32.55 235.287 32.42 234.568 C31.543 229.577 30.947 224.596 30.426 219.559 C30.096 218.899 29.766 218.239 29.426 217.559 C29.22 215.834 29.06 214.103 28.926 212.371 C28.416 205.932 28.416 205.932 27.426 199.559 C26.766 199.559 26.106 199.559 25.426 199.559 C24.68 197.277 24.68 197.277 23.988 194.059 C23.733 192.884 23.478 191.71 23.215 190.5 C22.655 187.763 22.137 185.021 21.637 182.273 C21.507 181.562 21.377 180.85 21.244 180.117 C20.994 178.726 20.751 177.335 20.516 175.941 C19.901 172.459 19.044 169.679 17.426 166.559 C17.039 164.757 16.709 162.942 16.426 161.121 C15.992 158.335 15.56 155.885 14.488 153.273 C13.515 150.788 12.92 148.491 12.359 145.889 C12.183 145.078 12.007 144.267 11.826 143.432 C11.628 142.505 11.628 142.505 11.426 141.559 C11.426 142.642 11.426 142.642 11.427 143.747 C11.434 161.315 11.408 178.883 11.346 196.452 C11.316 204.948 11.298 213.444 11.306 221.94 C11.313 229.345 11.299 236.75 11.259 244.155 C11.239 248.076 11.23 251.996 11.245 255.917 C11.26 259.609 11.246 263.299 11.211 266.99 C11.199 268.99 11.217 270.989 11.236 272.988 C11.116 281.549 11.116 281.549 9.113 284.477 C5.615 287.503 2.822 288.277 -1.613 287.988 C-6.253 286.972 -9.017 284.395 -11.574 280.559 C-11.823 278.428 -11.823 278.428 -11.821 275.909 C-11.826 274.948 -11.83 273.987 -11.834 272.997 C-11.829 271.939 -11.823 270.881 -11.817 269.791 C-11.819 268.669 -11.821 267.547 -11.823 266.391 C-11.826 262.612 -11.816 258.833 -11.805 255.053 C-11.803 252.352 -11.804 249.65 -11.805 246.948 C-11.806 239.595 -11.791 232.242 -11.773 224.889 C-11.761 220.299 -11.753 215.709 -11.745 211.119 C-11.723 198.414 -11.698 185.709 -11.658 173.005 C-11.656 172.191 -11.653 171.378 -11.651 170.54 C-11.648 169.725 -11.645 168.91 -11.643 168.07 C-11.638 166.418 -11.633 164.766 -11.627 163.114 C-11.625 162.295 -11.622 161.475 -11.62 160.631 C-11.579 147.349 -11.566 134.067 -11.564 120.785 C-11.561 107.154 -11.536 93.523 -11.489 79.891 C-11.463 72.235 -11.447 64.58 -11.455 56.924 C-11.462 50.406 -11.448 43.889 -11.408 37.371 C-11.388 34.044 -11.381 30.719 -11.394 27.392 C-11.406 23.787 -11.381 20.185 -11.347 16.58 C-11.359 15.526 -11.372 14.473 -11.384 13.388 C-11.265 6.494 -11.265 6.494 -9.269 3.792 C-6.347 1.258 -3.866 -0.071 0 0 Z " fill="#0A0A0A" transform="translate(1817.57421875,167.44140625)"/>
<path d="M0 0 C3 1 3 1 4.375 3.75 C5.312 6.118 6.184 8.505 7.055 10.898 C9.664 17.943 12.736 24.4 16.383 30.965 C18.149 34.281 19.509 37.61 20.828 41.121 C22.755 45.856 25.023 50.435 27.271 55.024 C29.055 58.726 30.212 61.948 31 66 C31.66 66 32.32 66 33 66 C34.184 68.527 34.184 68.527 35.438 71.938 C35.849 73.04 36.26 74.142 36.684 75.277 C37.118 76.506 37.552 77.734 38 79 C38.358 79.72 38.717 80.44 39.086 81.182 C40.162 83.564 40.847 85.385 41 88 C39.196 91.24 36.538 93.307 33.688 95.625 C32.092 97.018 30.497 98.411 28.902 99.805 C28.082 100.502 27.262 101.199 26.417 101.917 C22.75 105.077 19.257 108.413 15.75 111.75 C14.431 112.988 13.111 114.225 11.789 115.461 C11.155 116.054 10.521 116.646 9.868 117.257 C2.509 124.124 -4.901 130.932 -12.398 137.648 C-16.024 140.925 -19.607 144.246 -23.184 147.576 C-26.057 150.242 -28.967 152.855 -31.926 155.426 C-35.892 158.882 -39.738 162.451 -43.562 166.062 C-44.962 167.379 -46.362 168.695 -47.762 170.012 C-48.465 170.673 -49.168 171.335 -49.892 172.017 C-53.214 175.142 -56.543 178.261 -59.875 181.375 C-60.496 181.956 -61.118 182.537 -61.758 183.135 C-66.078 187.164 -70.461 191.117 -74.867 195.051 C-76.846 196.859 -78.745 198.715 -80.625 200.625 C-83.096 203.119 -85.602 205.561 -88.188 207.938 C-88.82 208.524 -89.453 209.111 -90.105 209.715 C-92 211 -92 211 -96 211 C-97.09 209.418 -97.09 209.418 -97.938 207.188 C-99.399 203.491 -100.998 199.943 -102.75 196.375 C-104.708 192.047 -105.77 188.811 -105 184 C-103.812 181.625 -103.812 181.625 -102 179 C-101.218 177.61 -100.448 176.214 -99.688 174.812 C-97.378 170.631 -94.934 166.543 -92.461 162.457 C-91.133 160.223 -89.868 157.969 -88.625 155.688 C-86.591 151.972 -84.381 148.397 -82.125 144.812 C-79.259 140.204 -76.692 135.563 -74.312 130.688 C-71.802 125.559 -69.149 120.754 -66 116 C-59.603 106.394 -59.603 106.394 -54.148 96.246 C-52.461 92.947 -50.54 89.797 -48.625 86.625 C-48.228 85.967 -47.831 85.309 -47.422 84.631 C-45.737 81.846 -44.042 79.068 -42.328 76.301 C-39.069 71 -36.218 65.551 -33.469 59.974 C-30.394 53.738 -26.928 47.858 -23.227 41.977 C-20.82 38.099 -18.57 34.164 -16.562 30.062 C-15.323 27.633 -14.027 25.416 -12.562 23.125 C-10.435 19.784 -8.632 16.375 -6.906 12.812 C-6.137 11.273 -5.265 9.785 -4.375 8.312 C-2.966 5.943 -1.997 3.564 -1 1 C-0.67 0.67 -0.34 0.34 0 0 Z " fill="#FCFCFB" transform="translate(523,240)"/>
<path d="M0 0 C3 1 3 1 4.375 3.562 C4.911 4.697 5.447 5.831 6 7 C6.817 8.343 7.651 9.676 8.5 11 C10.565 14.24 12.281 17.563 14 21 C14.495 21.66 14.99 22.32 15.5 23 C17 25 17 25 18.5 28.062 C19.755 30.925 19.755 30.925 21.48 32.398 C23.322 34.34 23.927 36.044 24.812 38.562 C26.932 44.134 29.851 48.961 33 54 C34.357 56.321 35.676 58.66 37 61 C37.619 62.072 38.238 63.145 38.875 64.25 C40.59 67.245 42.235 70.276 43.875 73.312 C47.747 80.417 51.744 87.322 56.5 93.875 C59.672 98.324 62.034 102.931 64.395 107.848 C66.718 112.41 69.455 116.685 72.18 121.016 C73.68 123.475 75.01 125.904 76.25 128.5 C77.806 131.941 77.806 131.941 79.898 134.293 C82.248 137.32 83.747 140.347 85.375 143.812 C87.672 148.591 90.087 152.917 93.543 156.961 C95.318 159.444 96.541 162.066 97.874 164.806 C99.022 167.043 100.282 169.157 101.613 171.289 C102.056 172.003 102.499 172.717 102.955 173.453 C103.869 174.915 104.794 176.371 105.729 177.82 C109.022 183.191 109.022 183.191 108.914 187.125 C108.612 188.074 108.311 189.023 108 190 C107.702 191.06 107.404 192.119 107.098 193.211 C106.756 194.255 106.414 195.299 106.062 196.375 C105.554 197.964 105.554 197.964 105.035 199.586 C104.694 200.383 104.352 201.179 104 202 C103.34 202 102.68 202 102 202 C101.856 202.928 101.711 203.856 101.562 204.812 C101 208 101 208 99.739 209.888 C99.165 210.255 98.591 210.622 98 211 C89.336 206.699 81.983 197.151 75.25 190.25 C73.074 188.02 70.891 185.797 68.703 183.578 C68.219 183.077 67.734 182.576 67.235 182.06 C64.08 178.861 60.775 176.418 57 174 C55.479 172.585 53.998 171.126 52.562 169.625 C49.351 166.333 46.071 163.274 42.547 160.324 C39.681 157.871 37.089 155.143 34.488 152.414 C31.137 148.961 27.675 145.896 23.875 142.938 C21.092 140.758 18.563 138.717 16.375 135.938 C13.918 132.898 11.312 130.56 8.352 128.031 C5.625 125.676 2.964 123.252 0.312 120.812 C-0.192 120.349 -0.696 119.886 -1.216 119.408 C-3.942 116.901 -6.662 114.388 -9.379 111.871 C-16.22 105.522 -16.22 105.522 -23.188 99.312 C-23.788 98.784 -24.389 98.255 -25.008 97.711 C-26.562 96.376 -28.147 95.075 -29.742 93.789 C-30.673 93.013 -31.604 92.237 -32.562 91.438 C-33.43 90.735 -34.298 90.032 -35.191 89.309 C-37 87 -37 87 -37.062 84.332 C-35.601 79.748 -33.574 75.555 -31.438 71.25 C-30.519 69.362 -29.602 67.472 -28.688 65.582 C-28.231 64.641 -27.775 63.699 -27.305 62.729 C-25.441 58.831 -23.677 54.892 -21.938 50.938 C-21.62 50.216 -21.302 49.495 -20.975 48.752 C-20.324 47.274 -19.674 45.796 -19.024 44.318 C-17.161 40.099 -15.267 35.894 -13.375 31.688 C-12.997 30.845 -12.619 30.003 -12.23 29.135 C-10.573 25.452 -8.905 21.776 -7.168 18.129 C-4.458 12.426 -2.307 7.178 -1 1 C-0.67 0.67 -0.34 0.34 0 0 Z " fill="#FCFCFB" transform="translate(96,241)"/>
<path d="M0 0 C0.716 -0.008 1.432 -0.015 2.17 -0.023 C6.93 -0.006 10.962 0.58 15.438 2.25 C15.438 2.91 15.438 3.57 15.438 4.25 C16.077 4.456 16.716 4.662 17.375 4.875 C19.438 6.25 19.438 6.25 20.375 9.938 C20.717 14.518 19.798 17.316 17.438 21.25 C15.375 22.812 15.375 22.812 12.438 23.25 C9.969 22.868 7.556 22.332 5.117 21.789 C-1.436 20.471 -6.553 20.198 -12.375 23.812 C-19.049 28.853 -21.936 34.509 -24.668 42.309 C-24.963 42.949 -25.258 43.59 -25.562 44.25 C-26.223 44.25 -26.882 44.25 -27.562 44.25 C-28.179 45.976 -28.179 45.976 -28.535 48.172 C-29.182 51.403 -29.884 54.584 -30.746 57.766 C-33.801 69.243 -35.844 80.62 -37.253 92.413 C-37.562 94.25 -37.562 94.25 -38.562 96.25 C-38.8 99.089 -38.982 101.908 -39.117 104.752 C-39.159 105.604 -39.201 106.456 -39.244 107.334 C-39.642 115.961 -39.708 124.576 -39.695 133.211 C-39.696 134.86 -39.697 136.509 -39.698 138.158 C-39.7 141.581 -39.698 145.004 -39.693 148.428 C-39.687 152.75 -39.691 157.071 -39.696 161.393 C-39.76 182.97 -39.76 182.97 -39.145 204.535 C-39.092 205.689 -39.092 205.689 -39.038 206.866 C-38.236 221.552 -38.236 221.552 -33.562 235.25 C-33.202 236.844 -32.892 238.45 -32.625 240.062 C-31.796 244.467 -30.458 248.168 -28.562 252.25 C-28.31 253.009 -28.057 253.769 -27.797 254.551 C-25.33 261.762 -20.625 269.719 -13.562 273.25 C-13.562 273.91 -13.562 274.57 -13.562 275.25 C-5.887 278.751 2.103 279.626 10.438 278.25 C14.689 276.147 18.067 273.574 21.438 270.25 C22.19 269.532 22.943 268.814 23.719 268.074 C26.217 263.969 25.91 260.461 25.75 255.75 C25.725 254.384 25.725 254.384 25.699 252.991 C25.635 250.076 25.539 247.164 25.438 244.25 C25.41 243.254 25.382 242.258 25.354 241.232 C25.272 238.321 25.172 235.411 25.062 232.5 C25.032 231.589 25.001 230.679 24.97 229.74 C24.869 227.572 24.664 225.409 24.438 223.25 C22.1 222.081 20.888 222.187 18.297 222.293 C17.473 222.314 16.649 222.336 15.801 222.357 C14.074 222.41 12.347 222.475 10.621 222.553 C5.04 222.67 1.816 222.083 -2.562 218.25 C-4.468 214.266 -5.135 210.639 -4.562 206.25 C-1.563 201.686 3.341 200.421 8.438 199.25 C12.863 198.836 17.246 198.83 21.688 198.875 C23.424 198.858 23.424 198.858 25.195 198.84 C26.312 198.844 27.428 198.848 28.578 198.852 C29.584 198.855 30.59 198.858 31.626 198.862 C34.901 199.314 36.791 200.294 39.438 202.25 C40.547 204.695 40.547 204.695 41.188 207.375 C41.781 210.597 41.781 210.597 43.438 213.25 C43.603 215.836 43.719 218.411 43.812 221 C44.169 228.998 45.101 236.82 46.333 244.728 C47.976 255.334 48.619 265.767 48.625 276.5 C48.637 277.632 48.649 278.764 48.662 279.93 C48.672 285.701 48.654 290.867 46.438 296.25 C45.777 296.25 45.118 296.25 44.438 296.25 C44.438 296.91 44.438 297.57 44.438 298.25 C36.67 298.92 36.67 298.92 33 295.938 C30.438 293.25 30.438 293.25 29.438 290.25 C26.934 290.267 26.934 290.267 24.438 291.25 C23.777 292.24 23.118 293.23 22.438 294.25 C19.828 295.602 19.828 295.602 16.688 296.875 C15.661 297.3 14.635 297.726 13.578 298.164 C3.401 301.683 -8.242 300.815 -18.562 298.25 C-23.796 295.36 -27.871 291.327 -32.062 287.125 C-32.727 286.459 -33.391 285.793 -34.075 285.107 C-38.808 280.255 -42.68 275.433 -45.562 269.25 C-46.009 268.301 -46.009 268.301 -46.465 267.332 C-47.208 265.657 -47.887 263.954 -48.562 262.25 C-49.057 261.219 -49.553 260.188 -50.062 259.125 C-54.315 249.047 -55.334 237.67 -56.867 226.93 C-57.385 223.342 -58.019 219.801 -58.75 216.25 C-59.838 210.593 -59.743 204.99 -59.562 199.25 C-60.223 199.25 -60.882 199.25 -61.562 199.25 C-61.899 196.353 -62.08 193.555 -62.18 190.645 C-62.217 189.715 -62.255 188.785 -62.293 187.827 C-62.723 175.859 -62.712 163.884 -62.693 151.91 C-62.687 147.926 -62.693 143.943 -62.699 139.959 C-62.71 106.571 -62.71 106.571 -59.52 92.004 C-58.664 87.948 -57.985 83.868 -57.324 79.777 C-57.216 79.108 -57.107 78.438 -56.995 77.748 C-56.551 75.005 -56.11 72.261 -55.679 69.516 C-55.374 67.568 -55.06 65.622 -54.746 63.676 C-54.566 62.535 -54.386 61.395 -54.201 60.22 C-53.625 57.54 -52.855 55.635 -51.562 53.25 C-51.249 50.887 -51.125 48.556 -51.004 46.176 C-50.858 45.54 -50.713 44.905 -50.562 44.25 C-49.078 43.755 -49.078 43.755 -47.562 43.25 C-47.327 41.333 -47.1 39.415 -46.922 37.492 C-46.305 33.642 -44.526 30.577 -42.562 27.25 C-42.151 26.54 -41.74 25.829 -41.316 25.098 C-34.636 14.329 -25.114 4.838 -12.793 1.109 C-8.506 0.113 -4.387 -0.048 0 0 Z " fill="#0B0B0B" transform="translate(1638.5625,160.75)"/>
<path d="M0 0 C1.608 -0.01 3.216 -0.017 4.824 -0.023 C5.72 -0.028 6.615 -0.032 7.538 -0.037 C16.972 0.104 23.223 4.897 30 11 C30.99 11.846 31.98 12.691 33 13.562 C35.454 16.553 36.037 19.287 37 23 C37.465 23.441 37.931 23.882 38.41 24.336 C44.94 31.17 46.311 46.109 48.312 54.938 C48.579 56.098 48.846 57.259 49.12 58.455 C50.433 64.436 51.323 69.877 51 76 C51.66 76 52.32 76 53 76 C55.101 86.879 54.199 98.838 54.188 109.875 C54.187 110.827 54.187 111.779 54.187 112.76 C54.172 123.694 54.122 134.6 53.188 145.5 C53.117 146.338 53.047 147.175 52.975 148.039 C52.424 153.368 51.169 158.347 49.693 163.493 C48.647 167.278 48.097 171.101 47.527 174.98 C47.353 175.647 47.179 176.313 47 177 C46.34 177 45.68 177 45 177 C44.516 179.074 44.044 181.151 43.621 183.238 C41.209 193.966 37.21 204.588 30 213 C29.526 213.825 29.051 214.65 28.562 215.5 C26.721 218.446 24.482 220.58 22 223 C21.165 224.145 21.165 224.145 20.312 225.312 C19.879 225.869 19.446 226.426 19 227 C18.34 227 17.68 227 17 227 C16.67 227.99 16.34 228.98 16 230 C14.68 230 13.36 230 12 230 C12 230.66 12 231.32 12 232 C9.562 232.688 9.562 232.688 7 233 C4.974 230.974 5.846 226.779 5.842 223.997 C5.837 223.155 5.832 222.314 5.827 221.447 C5.816 219.607 5.808 217.766 5.801 215.926 C5.789 212.976 5.769 210.026 5.748 207.076 C5.686 198.681 5.633 190.287 5.599 181.892 C5.493 157.389 4.826 133.193 2.379 108.809 C0.075 85.632 -0.258 62.647 -0.137 39.383 C-0.116 34.923 -0.108 30.464 -0.098 26.004 C-0.077 17.336 -0.043 8.668 0 0 Z " fill="#FAFBF9" transform="translate(1482,197)"/>
<path d="M0 0 C1.756 -0.031 3.513 -0.052 5.27 -0.07 C6.737 -0.09 6.737 -0.09 8.234 -0.11 C15.953 0.197 22.568 5.501 27.805 10.84 C30.223 13.576 31.832 15.496 33 19 C33.99 19.66 34.98 20.32 36 21 C37.062 23.207 37.062 23.207 38 25.812 C38.985 28.526 39.883 30.827 41.5 33.227 C43.634 37.171 44.22 41.176 45 45.562 C45.339 47.374 45.68 49.185 46.023 50.996 C46.188 51.865 46.353 52.733 46.522 53.628 C47.1 56.498 47.84 59.306 48.625 62.125 C50.355 68.687 50.918 75.358 51.57 82.094 C51.871 85.705 51.871 85.705 52.518 87.975 C53.036 90.15 53.134 92.066 53.145 94.299 C53.152 95.142 53.158 95.984 53.165 96.852 C53.166 97.76 53.167 98.667 53.168 99.602 C53.173 101.027 53.173 101.027 53.178 102.482 C53.183 104.501 53.185 106.52 53.185 108.539 C53.187 111.565 53.206 114.591 53.225 117.617 C53.274 134.094 52.133 149.932 48.312 166 C48.055 167.102 47.797 168.203 47.532 169.338 C45.353 178.281 42.378 186.679 38.771 195.131 C37.273 198.763 36.061 202.5 34.824 206.227 C34.552 206.812 34.28 207.397 34 208 C33.34 208 32.68 208 32 208 C31.32 209.661 30.656 211.329 30 213 C24.263 221.377 16.924 229.019 8 234 C7.01 233.67 6.02 233.34 5 233 C4.628 230.102 4.628 230.102 4.631 226.132 C4.627 225.405 4.623 224.678 4.619 223.928 C4.613 222.325 4.613 220.721 4.619 219.118 C4.629 216.507 4.621 213.897 4.608 211.287 C4.59 207.487 4.58 203.688 4.575 199.888 C4.558 189.633 4.481 179.379 4.383 169.125 C4.373 168.06 4.363 166.995 4.352 165.898 C4.104 141.532 3.073 117.213 1.938 92.875 C1.571 84.976 1.208 77.076 0.855 69.176 C0.814 68.244 0.772 67.312 0.729 66.352 C-0.246 44.233 -0.485 22.138 0 0 Z " fill="#F9FAF8" transform="translate(901,197)"/>
<path d="M0 0 C0.834 0.526 1.668 1.052 2.527 1.594 C2.527 2.254 2.527 2.914 2.527 3.594 C4.191 4.268 5.858 4.934 7.527 5.594 C10.833 8.31 11.43 10.715 11.902 14.969 C11.527 18.594 11.527 18.594 9.527 21.531 C5.786 24.103 2.884 24.397 -1.473 23.594 C-2.607 23.099 -3.741 22.604 -4.91 22.094 C-9.269 20.259 -12.833 19.307 -17.473 20.594 C-22.248 24.327 -24.906 29.19 -27.473 34.594 C-28.133 34.594 -28.793 34.594 -29.473 34.594 C-36.203 52.963 -32.712 71.476 -26.293 89.209 C-24.891 93.284 -23.974 97.432 -23.078 101.645 C-22.878 102.288 -22.679 102.931 -22.473 103.594 C-21.483 104.089 -21.483 104.089 -20.473 104.594 C-18.137 109.264 -16.935 113.627 -16.098 118.773 C-15.891 119.374 -15.685 119.975 -15.473 120.594 C-14.483 120.924 -13.493 121.254 -12.473 121.594 C-10.951 123.926 -9.602 126.212 -8.285 128.656 C-7.892 129.371 -7.499 130.085 -7.094 130.821 C-3.336 137.715 0.176 144.728 3.629 151.779 C4.452 153.441 5.299 155.09 6.148 156.738 C12.954 169.943 17.402 181.838 18.902 196.594 C19.063 198.047 19.223 199.501 19.383 200.954 C21.951 225.186 23.906 255.446 9.527 276.594 C8.867 276.594 8.207 276.594 7.527 276.594 C6.821 277.906 6.162 279.245 5.527 280.594 C0.038 288.754 -5.885 294.788 -15.473 297.594 C-15.803 298.254 -16.133 298.914 -16.473 299.594 C-28.185 302.286 -40.134 301.443 -50.41 295.219 C-53.997 292.928 -55.671 291.391 -57.473 287.594 C-58.463 287.264 -59.453 286.934 -60.473 286.594 C-61.49 282.847 -61.305 279.052 -59.371 275.664 C-56.759 272.744 -55.073 271.696 -51.16 271.031 C-45.538 271.889 -40.472 273.377 -35.598 276.344 C-30.888 278.227 -26.371 277.72 -21.473 276.594 C-12.535 272.263 -9.666 262.088 -6.551 253.281 C-3.836 243.997 -3.117 235.327 -3.16 225.656 C-3.164 224.38 -3.169 223.104 -3.173 221.79 C-3.407 202.019 -7.404 186.147 -16.473 168.594 C-17.642 166.262 -18.809 163.929 -19.973 161.594 C-20.558 160.426 -21.143 159.258 -21.746 158.055 C-22.864 155.814 -23.974 153.569 -25.074 151.32 C-28.466 144.415 -32.21 137.987 -36.473 131.594 C-36.741 130.748 -37.009 129.903 -37.285 129.031 C-38.263 126.202 -39.328 123.902 -40.723 121.281 C-46.356 110.232 -51.473 97.11 -51.473 84.594 C-52.133 84.594 -52.793 84.594 -53.473 84.594 C-55.744 77.127 -55.742 69.91 -55.66 62.156 C-55.66 60.993 -55.659 59.829 -55.658 58.631 C-55.566 40.499 -55.566 40.499 -52.535 32.469 C-52.196 31.538 -51.857 30.607 -51.508 29.648 C-51.166 28.97 -50.825 28.292 -50.473 27.594 C-49.813 27.594 -49.153 27.594 -48.473 27.594 C-47.847 25.653 -47.847 25.653 -47.473 23.281 C-46.873 19.958 -46.407 18.496 -44.473 15.594 C-43.813 15.594 -43.153 15.594 -42.473 15.594 C-42.143 14.934 -41.813 14.274 -41.473 13.594 C-41.143 12.934 -40.813 12.274 -40.473 11.594 C-39.813 11.594 -39.153 11.594 -38.473 11.594 C-38.009 10.635 -38.009 10.635 -37.535 9.656 C-36.473 7.594 -36.473 7.594 -33.473 6.594 C-33.143 5.604 -32.813 4.614 -32.473 3.594 C-23.075 -1.884 -10.279 -4.163 0 0 Z " fill="#0A0B0A" transform="translate(755.47265625,161.40625)"/>
<path d="M0 0 C0.765 -0.001 1.53 -0.002 2.318 -0.003 C3.928 -0.004 5.537 -0.002 7.147 0.002 C9.615 0.008 12.084 0.002 14.553 -0.004 C16.118 -0.003 17.684 -0.002 19.25 0 C19.99 -0.002 20.729 -0.004 21.491 -0.006 C26.696 0.018 26.696 0.018 28.926 1.133 C28.926 1.793 28.926 2.453 28.926 3.133 C29.524 3.401 30.122 3.669 30.738 3.945 C33.737 5.573 34.566 7.006 35.926 10.133 C36.658 14.492 36.459 17.268 34.113 21.07 C31.926 23.133 31.926 23.133 28.926 24.133 C28.596 24.793 28.266 25.453 27.926 26.133 C24.967 26.36 24.967 26.36 21.047 26.328 C20.017 26.324 20.017 26.324 18.966 26.32 C16.765 26.308 14.564 26.283 12.363 26.258 C10.874 26.248 9.385 26.239 7.896 26.23 C4.239 26.208 0.583 26.174 -3.074 26.133 C-3.003 27.347 -2.931 28.562 -2.858 29.813 C-1.873 48.211 -1.956 66.598 -2.006 85.016 C-2.016 89.328 -2.02 93.639 -2.025 97.951 C-2.036 106.345 -2.053 114.739 -2.074 123.133 C2.067 123.343 2.067 123.343 5.926 122.133 C8.006 122.009 10.092 121.957 12.176 121.945 C13.295 121.931 14.414 121.917 15.566 121.902 C20.03 122.209 23.675 122.799 26.801 126.133 C28.485 130.624 28.967 134.418 27.926 139.133 C26.053 142.981 23.872 144.544 19.926 146.133 C17.558 146.069 17.558 146.069 14.885 145.781 C6.691 144.893 6.691 144.893 -1.074 147.133 C-5.249 153.917 -3.471 163.93 -3.125 171.512 C-3.086 173.999 -3.056 176.486 -3.035 178.973 C-2.963 184.867 -2.797 190.753 -2.587 196.642 C-2.329 204.002 -2.216 211.362 -2.1 218.725 C-1.874 231.865 -1.519 244.998 -1.074 258.133 C0.012 258.063 1.098 257.993 2.217 257.921 C3.663 257.829 5.108 257.737 6.554 257.646 C7.268 257.6 7.981 257.554 8.716 257.506 C14.495 257.14 20.26 256.918 26.051 256.883 C27.369 256.852 27.369 256.852 28.715 256.82 C35.18 256.781 39.514 257.784 44.301 262.445 C46.277 265.714 46.474 267.37 45.926 271.133 C44.188 275.696 41.434 277.263 37.254 279.336 C31.801 281.202 26.122 281.261 20.41 281.266 C19.714 281.267 19.017 281.268 18.3 281.269 C16.834 281.269 15.368 281.267 13.903 281.263 C11.696 281.258 9.489 281.263 7.281 281.27 C-15.968 281.287 -15.968 281.287 -21.832 275.703 C-24.983 271.72 -24.204 266.775 -24.181 261.974 C-24.18 261.024 -24.18 260.075 -24.179 259.098 C-24.176 255.903 -24.166 252.709 -24.156 249.515 C-24.152 247.23 -24.149 244.945 -24.147 242.661 C-24.14 237.733 -24.131 232.806 -24.119 227.879 C-24.101 220.089 -24.091 212.299 -24.083 204.509 C-24.071 193.587 -24.057 182.665 -24.04 171.743 C-24.039 171.049 -24.038 170.356 -24.036 169.642 C-24.021 159.808 -24.002 149.975 -23.982 140.142 C-23.981 139.45 -23.98 138.757 -23.978 138.044 C-23.977 137.353 -23.975 136.662 -23.974 135.95 C-23.951 124.418 -23.936 112.886 -23.927 101.354 C-23.92 93.609 -23.905 85.865 -23.882 78.12 C-23.871 73.301 -23.867 68.481 -23.866 63.661 C-23.864 61.426 -23.859 59.191 -23.849 56.955 C-23.837 53.903 -23.837 50.852 -23.84 47.8 C-23.831 46.474 -23.831 46.474 -23.821 45.121 C-23.841 40.047 -24.512 35.957 -26.074 31.133 C-26.834 22.844 -26.697 15.792 -21.422 9.008 C-14.875 1.257 -10.007 -0.028 0 0 Z " fill="#090909" transform="translate(1021.07421875,171.8671875)"/>
<path d="M0 0 C0.66 0 1.32 0 2 0 C5.355 8.469 5.433 17.342 5.312 26.312 C5.316 27.535 5.319 28.758 5.322 30.018 C5.218 47.515 -2.863 61.898 -15.028 74.328 C-26.512 85.42 -40.549 88.992 -56 91 C-55.34 91.619 -54.68 92.238 -54 92.875 C-52 95 -52 95 -52 97 C-70.367 103.16 -94.042 99.27 -111.27 91.531 C-120.27 86.484 -129.516 81.197 -137 74 C-137 73.34 -137 72.68 -137 72 C-137.66 72 -138.32 72 -139 72 C-138.227 68.421 -136.941 65.138 -135.562 61.75 C-135.131 60.672 -134.699 59.595 -134.254 58.484 C-133.84 57.665 -133.426 56.845 -133 56 C-132.34 56 -131.68 56 -131 56 C-131 55.34 -131 54.68 -131 54 C-127.373 52.163 -123.945 51.639 -119.938 51.188 C-109.991 49.746 -101.942 46.043 -94 40 C-93.34 40 -92.68 40 -92 40 C-92 39.34 -92 38.68 -92 38 C-90.172 36.379 -90.172 36.379 -87.75 34.562 C-86.961 33.966 -86.172 33.369 -85.359 32.754 C-84.581 32.175 -83.802 31.596 -83 31 C-82.304 30.452 -81.608 29.904 -80.891 29.34 C-79 28 -79 28 -76 27 C-75.443 26.402 -74.886 25.804 -74.312 25.188 C-69.036 20.196 -62.294 18.228 -55.312 16.812 C-54.501 16.641 -53.689 16.469 -52.853 16.292 C-46.589 15.07 -40.494 14.744 -34.125 14.625 C-25.046 14.428 -18.895 12.699 -11 8 C-9.911 7.433 -9.911 7.433 -8.801 6.855 C-5.293 5.01 -2.735 2.836 0 0 Z " fill="#0A0B0A" transform="translate(1221,257)"/>
<path d="M0 0 C0.697 0.005 1.395 0.009 2.113 0.014 C3.826 0.025 5.538 0.043 7.25 0.062 C7.25 0.722 7.25 1.382 7.25 2.062 C7.972 2.351 8.694 2.64 9.438 2.938 C13.295 4.48 16.165 6.513 18.562 9.938 C19.868 13.974 19.766 16.982 17.938 20.812 C15.959 23.45 14.214 24.795 11.017 25.681 C7.643 26.146 4.387 26.174 0.98 26.16 C0.299 26.159 -0.382 26.157 -1.083 26.156 C-3.243 26.15 -5.403 26.138 -7.562 26.125 C-9.033 26.12 -10.504 26.115 -11.975 26.111 C-15.566 26.1 -19.158 26.083 -22.75 26.062 C-22.597 27.348 -22.444 28.634 -22.286 29.959 C-20.992 42.105 -20.687 53.96 -21.043 66.15 C-21.178 71.091 -21.252 76.034 -21.335 80.977 C-21.412 85.243 -21.532 89.502 -21.727 93.765 C-22.875 109.199 -22.875 109.199 -19.75 124.062 C-15.4 127.004 -10.918 126.407 -5.926 125.611 C-4.01 125.224 -2.097 124.819 -0.189 124.395 C2.25 124.062 2.25 124.062 5.325 125.311 C9.218 128.854 9.218 128.854 9.656 131.707 C9.903 140.049 9.903 140.049 8.047 142.93 C4.682 145.801 1.369 147.226 -3.012 146.888 C-3.818 146.773 -4.623 146.657 -5.453 146.538 C-13.337 145.758 -13.337 145.758 -20.75 148.062 C-24.709 154.773 -22.908 164.541 -22.52 171.969 C-22.462 174.409 -22.414 176.849 -22.374 179.289 C-22.244 185.731 -21.993 192.163 -21.718 198.601 C-21.461 205.158 -21.321 211.717 -21.17 218.277 C-20.931 227.84 -20.651 237.4 -20.273 246.959 C-20.236 247.973 -20.198 248.987 -20.16 250.032 C-20.102 251.408 -20.102 251.408 -20.043 252.811 C-20.01 253.612 -19.978 254.414 -19.945 255.24 C-19.941 257.081 -19.941 257.081 -18.75 258.062 C-16.119 258.139 -13.514 258.153 -10.883 258.125 C-10.092 258.121 -9.302 258.117 -8.487 258.114 C-5.092 258.097 -1.697 258.069 1.698 258.042 C4.171 258.024 6.644 258.012 9.117 258 C9.886 257.992 10.655 257.983 11.447 257.975 C14.656 257.96 17.182 258.04 20.25 259.062 C21.24 260.548 21.24 260.548 22.25 262.062 C23.24 262.392 24.23 262.723 25.25 263.062 C27.703 266.742 27.95 269.787 27.25 274.062 C24.829 277.47 22.216 278.891 18.25 280.062 C15.589 280.456 12.922 280.751 10.25 281.062 C9.92 281.392 9.59 281.723 9.25 282.062 C3.517 282.356 -2.218 282.377 -7.958 282.413 C-9.892 282.429 -11.826 282.456 -13.76 282.495 C-16.551 282.55 -19.341 282.571 -22.133 282.586 C-22.99 282.609 -23.848 282.631 -24.731 282.655 C-30.689 282.634 -34.464 281.286 -38.75 277.062 C-40.773 274.028 -41.001 273.46 -41.009 270.061 C-41.016 269.245 -41.023 268.429 -41.03 267.588 C-41.027 266.692 -41.024 265.795 -41.022 264.872 C-41.027 263.92 -41.032 262.967 -41.037 261.986 C-41.052 258.78 -41.052 255.574 -41.053 252.368 C-41.061 250.076 -41.069 247.783 -41.079 245.49 C-41.097 240.545 -41.109 235.599 -41.116 230.654 C-41.128 222.834 -41.153 215.014 -41.18 207.195 C-41.217 196.23 -41.248 185.265 -41.273 174.3 C-41.275 173.604 -41.276 172.908 -41.278 172.191 C-41.28 171.494 -41.281 170.797 -41.283 170.079 C-41.306 160.212 -41.33 150.344 -41.357 140.477 C-41.359 139.783 -41.361 139.09 -41.363 138.375 C-41.395 126.799 -41.43 115.223 -41.468 103.647 C-41.493 95.874 -41.513 88.101 -41.528 80.329 C-41.538 75.489 -41.552 70.65 -41.567 65.81 C-41.573 63.567 -41.578 61.325 -41.58 59.082 C-41.584 56.017 -41.594 52.952 -41.605 49.888 C-41.605 49.003 -41.604 48.118 -41.604 47.206 C-41.132 38.571 -41.132 38.571 -43.75 31.062 C-44.413 23.047 -44.72 15.705 -39.75 9.062 C-36.525 5.354 -33.6 2.467 -28.615 1.76 C-27.866 1.734 -27.116 1.709 -26.344 1.684 C-25.517 1.649 -24.691 1.615 -23.84 1.58 C-22.985 1.554 -22.131 1.527 -21.25 1.5 C-19.552 1.44 -17.854 1.376 -16.156 1.309 C-15.407 1.285 -14.657 1.261 -13.885 1.236 C-9.169 0.853 -4.818 -0.059 0 0 Z " fill="#060606" transform="translate(1753.75,170.9375)"/>
<path d="M0 0 C1.534 -0.044 1.534 -0.044 3.1 -0.088 C10.438 -0.15 10.438 -0.15 13.852 1.957 C15.528 4.912 15.754 6.921 15.75 10.312 C15.772 11.344 15.794 12.375 15.816 13.438 C15.188 16.312 15.188 16.312 13.133 18.648 C8.932 21.022 5.191 20.886 0.451 20.977 C-3.629 20.965 -3.629 20.965 -6.812 23.312 C-7.76 28.829 -7.971 34.226 -7.938 39.812 C-7.935 40.641 -7.932 41.469 -7.929 42.322 C-7.869 50.863 -7.628 59.4 -7.375 67.938 C-7.355 68.625 -7.336 69.313 -7.316 70.022 C-7.258 72.028 -7.193 74.034 -7.129 76.039 C-7.074 77.781 -7.074 77.781 -7.018 79.557 C-6.863 82.391 -6.628 85.159 -6.322 87.976 C-5.699 93.966 -5.521 99.951 -5.348 105.969 C-5.269 108.397 -5.19 110.826 -5.111 113.254 C-4.992 117.039 -4.875 120.824 -4.763 124.609 C-4.653 128.292 -4.532 131.974 -4.41 135.656 C-4.38 136.776 -4.35 137.896 -4.318 139.05 C-4.118 144.899 -3.587 150.405 -2.266 156.112 C-1.435 160.144 -1.371 164.209 -1.25 168.312 C-1.197 169.842 -1.197 169.842 -1.143 171.403 C-0.193 201.018 0.467 230.681 0.188 260.312 C1.273 260.266 2.358 260.22 3.477 260.172 C4.922 260.134 6.367 260.098 7.812 260.062 C8.525 260.029 9.238 259.995 9.973 259.961 C16.118 259.848 19.54 261.842 24.062 266.062 C25.781 269.5 26.189 272.638 25.188 276.312 C22.19 280.12 18.923 282.36 14.188 283.312 C12.51 283.421 10.828 283.481 9.147 283.505 C7.645 283.529 7.645 283.529 6.112 283.554 C1.55 283.599 -3.012 283.64 -7.574 283.663 C-9.98 283.679 -12.385 283.706 -14.79 283.745 C-18.264 283.799 -21.737 283.821 -25.211 283.836 C-26.283 283.859 -27.355 283.881 -28.46 283.905 C-36.79 283.881 -36.79 283.881 -40.483 280.897 C-43.631 277.405 -43.631 277.405 -43.812 274.312 C-43.916 273.158 -44.019 272.002 -44.125 270.812 C-43.812 267.312 -43.812 267.312 -41.938 264.875 C-39.812 263.312 -39.812 263.312 -37.812 263.312 C-37.812 262.652 -37.812 261.993 -37.812 261.312 C-32.202 261.312 -26.592 261.312 -20.812 261.312 C-20.921 250.985 -21.033 240.658 -21.152 230.331 C-21.207 225.536 -21.26 220.74 -21.31 215.945 C-21.358 211.315 -21.41 206.686 -21.465 202.056 C-21.486 200.292 -21.505 198.527 -21.522 196.763 C-21.546 194.287 -21.576 191.812 -21.607 189.337 C-21.616 188.248 -21.616 188.248 -21.625 187.136 C-21.683 183.092 -22.094 179.287 -22.812 175.312 C-22.937 173.749 -23.032 172.182 -23.094 170.615 C-23.13 169.736 -23.167 168.858 -23.205 167.953 C-23.258 166.551 -23.258 166.551 -23.312 165.121 C-23.353 164.139 -23.394 163.158 -23.436 162.146 C-23.565 159.014 -23.689 155.882 -23.812 152.75 C-23.976 148.644 -24.143 144.539 -24.312 140.434 C-24.353 139.442 -24.394 138.449 -24.436 137.427 C-24.648 132.439 -24.927 127.474 -25.367 122.5 C-26.055 114.302 -25.963 106.095 -25.938 97.875 C-25.937 97.033 -25.936 96.19 -25.935 95.322 C-25.922 85.031 -25.77 74.78 -25.171 64.504 C-24.447 51.129 -24.73 37.701 -24.812 24.312 C-25.594 24.637 -26.376 24.962 -27.181 25.296 C-31.493 26.962 -35.628 26.903 -40.125 25.688 C-43.195 23.186 -44.448 20.159 -45.207 16.316 C-45.375 14.25 -45.375 14.25 -44.812 10.312 C-40.331 5.612 -36.277 4.243 -30 3.062 C-29.244 2.903 -28.488 2.743 -27.709 2.578 C-18.493 0.692 -9.396 0.091 0 0 Z " fill="#0B0B0B" transform="translate(837.8125,167.6875)"/>
<path d="M0 0 C0.66 0 1.32 0 2 0 C2.313 3.2 2.484 6.321 2.578 9.531 C2.616 10.544 2.654 11.557 2.693 12.6 C2.816 15.971 2.925 19.343 3.035 22.715 C3.119 25.044 3.203 27.374 3.288 29.703 C3.512 35.852 3.724 42.002 3.933 48.152 C4.269 57.995 4.619 67.836 4.974 77.678 C5.097 81.129 5.213 84.579 5.328 88.03 C5.402 90.133 5.477 92.236 5.551 94.34 C5.582 95.308 5.612 96.277 5.644 97.276 C5.676 98.152 5.708 99.028 5.741 99.932 C5.78 101.081 5.78 101.081 5.82 102.253 C5.817 104.027 5.817 104.027 7 105 C7.162 107.334 7.258 109.641 7.312 111.979 C7.332 112.724 7.353 113.469 7.374 114.236 C7.44 116.774 7.498 119.313 7.554 121.851 C7.575 122.747 7.596 123.643 7.618 124.566 C8.187 149.443 8.147 174.325 8.135 199.207 C8.133 204.078 8.133 208.949 8.134 213.82 C8.134 214.526 8.134 215.231 8.134 215.959 C8.135 217.394 8.135 218.83 8.135 220.266 C8.138 233.601 8.135 246.936 8.129 260.271 C8.125 271.569 8.126 282.867 8.13 294.165 C8.136 307.445 8.138 320.726 8.135 334.006 C8.134 335.44 8.134 336.873 8.134 338.307 C8.134 339.011 8.134 339.715 8.133 340.441 C8.133 345.266 8.134 350.091 8.136 354.917 C8.149 382.974 8.037 411.024 7.554 439.078 C7.535 440.274 7.515 441.47 7.495 442.703 C7.44 446.046 7.377 449.388 7.312 452.731 C7.295 453.719 7.279 454.707 7.262 455.724 C7.243 456.63 7.223 457.536 7.203 458.469 C7.188 459.252 7.173 460.036 7.157 460.843 C7 463.004 6.566 464.914 6 467 C5.87 468.338 5.778 469.68 5.719 471.023 C5.682 471.813 5.645 472.604 5.607 473.419 C5.572 474.277 5.536 475.135 5.5 476.02 C5.46 476.93 5.42 477.84 5.378 478.778 C5.247 481.79 5.123 484.801 5 487.812 C4.956 488.845 4.912 489.877 4.867 490.941 C4.358 502.961 3.944 514.979 3.719 527.008 C3.689 528.582 3.689 528.582 3.659 530.187 C3.567 535.212 3.489 540.237 3.43 545.263 C3.279 555.913 2.982 566.503 1 577 C0.67 577 0.34 577 0 577 C-0.24 574.279 -0.41 571.579 -0.541 568.852 C-0.586 567.981 -0.632 567.11 -0.679 566.213 C-0.832 563.279 -0.977 560.344 -1.121 557.41 C-1.227 555.324 -1.333 553.238 -1.439 551.151 C-1.663 546.716 -1.884 542.281 -2.102 537.846 C-2.319 533.44 -2.54 529.034 -2.768 524.628 C-3.587 508.755 -4.329 492.88 -5 477 C-5.05 475.822 -5.1 474.644 -5.152 473.43 C-7.265 423.305 -7.313 373.195 -7.257 323.034 C-7.25 315.432 -7.252 307.831 -7.261 300.229 C-7.322 243.777 -7.133 187.363 -4.336 130.966 C-3.987 123.914 -3.737 116.862 -3.535 109.805 C-3.498 108.55 -3.46 107.295 -3.421 106.003 C-3.342 103.334 -3.263 100.666 -3.184 97.998 C-3.061 93.789 -2.932 89.58 -2.803 85.371 C-2.758 83.925 -2.714 82.478 -2.67 81.031 C-2.647 80.31 -2.625 79.589 -2.602 78.846 C-2.288 68.581 -1.979 58.317 -1.683 48.051 C-1.522 42.489 -1.354 36.927 -1.181 31.365 C-1.079 28.078 -0.982 24.791 -0.891 21.505 C-0.791 17.876 -0.678 14.249 -0.562 10.621 C-0.535 9.537 -0.508 8.453 -0.48 7.336 C-0.447 6.362 -0.413 5.388 -0.379 4.385 C-0.341 3.106 -0.341 3.106 -0.303 1.802 C-0.203 1.208 -0.103 0.613 0 0 Z " fill="#151515" transform="translate(657,23)"/>
<path d="M0 0 C10.364 0 15.479 3.297 23 10 C26.197 14.039 28.079 18.238 30 23 C30.492 24.067 30.985 25.135 31.492 26.234 C33.103 29.987 33.899 33.797 34.562 37.812 C34.792 39.132 35.023 40.451 35.254 41.77 C35.369 42.45 35.484 43.131 35.603 43.833 C35.879 45.338 36.188 46.838 36.524 48.331 C37.967 54.81 38.35 60.996 38.312 67.625 C38.304 69.198 38.304 69.198 38.295 70.803 C38.046 86.878 35.3 100.974 24.07 113.211 C20.17 116.581 15.624 118.784 11 121 C10.01 121.495 10.01 121.495 9 122 C6.03 122 3.06 122 0 122 C0 81.74 0 41.48 0 0 Z " fill="#FAFBF9" transform="translate(1268,310)"/>
<path d="M0 0 C0.66 0 1.32 0 2 0 C2.379 2.52 2.379 2.52 2.562 5.812 C2.758 9.158 2.938 11.814 4 15 C4.203 16.7 4.365 18.406 4.5 20.113 C4.624 21.615 4.624 21.615 4.75 23.146 C4.874 24.714 4.874 24.714 5 26.312 C5.543 33.744 5.543 33.744 6.543 41.121 C7.07 44.441 7.155 47.669 7.24 51.025 C7.487 60.295 8.378 69.236 9.938 78.375 C11.93 90.096 12.802 101.735 13.404 113.591 C13.471 114.889 13.537 116.187 13.605 117.523 C13.659 118.678 13.712 119.832 13.766 121.021 C13.961 123.507 14.362 125.608 15 128 C15.119 130.576 15.185 133.112 15.188 135.688 C15.2 136.377 15.212 137.066 15.225 137.775 C15.23 139.519 15.124 141.261 15 143 C6.057 147.471 -10.934 143.873 -20 141 C-20.99 140.34 -21.98 139.68 -23 139 C-23.084 136.035 -22.999 133.314 -22.75 130.375 C-22.697 129.593 -22.644 128.81 -22.59 128.004 C-21.56 113.56 -21.56 113.56 -20 112 C-19.578 109.375 -19.212 106.762 -18.879 104.125 C-18.774 103.327 -18.669 102.528 -18.561 101.705 C-18.224 99.137 -17.893 96.569 -17.562 94 C-17.131 90.645 -16.694 87.291 -16.254 83.938 C-16.158 83.178 -16.062 82.418 -15.963 81.635 C-14.049 67.049 -14.049 67.049 -12 65 C-11.647 63.007 -11.343 61.005 -11.062 59 C-10.508 55.202 -9.931 51.474 -9 47.75 C-8.203 44.387 -7.784 41.071 -7.453 37.632 C-6.598 28.916 -4.941 20.476 -3 11.938 C-2.739 10.765 -2.477 9.592 -2.208 8.383 C-1.954 7.296 -1.699 6.21 -1.438 5.09 C-1.209 4.109 -0.981 3.128 -0.746 2.117 C-0.5 1.418 -0.254 0.72 0 0 Z " fill="#F4F5F4" transform="translate(1397,226)"/>
<path d="M0 0 C5.625 -0.12 9.476 2.554 13.438 6.312 C14.283 7.199 15.129 8.086 16 9 C16.509 9.431 17.018 9.861 17.543 10.305 C22.32 14.48 23.655 18.906 25 25 C25.227 25.969 25.454 26.939 25.688 27.938 C26.502 35.916 25.94 43.734 25.125 51.688 C25.047 52.503 24.968 53.318 24.887 54.157 C24.67 56.115 24.346 58.061 24 60 C23.34 60 22.68 60 22 60 C21.409 62.037 21.409 62.037 21.062 64.562 C20.239 69.121 19.144 72.89 17 77 C16.34 77 15.68 77 15 77 C14.732 77.681 14.464 78.361 14.188 79.062 C12.895 82.259 11.207 84.611 9.164 87.359 C7.899 89.048 7.899 89.048 6.875 91.312 C6 93 6 93 3 95 C1.68 95 0.36 95 -1 95 C-1.53 93.243 -1.53 93.243 -1.574 90.801 C-1.602 89.921 -1.63 89.041 -1.658 88.135 C-1.668 87.203 -1.678 86.272 -1.688 85.312 C-1.73 83.496 -1.775 81.68 -1.824 79.863 C-1.835 79.052 -1.847 78.24 -1.858 77.404 C-2.009 74.854 -2.488 72.5 -3 70 C-4.376 58.039 -4.253 45.933 -4.295 33.911 C-4.307 31.623 -4.327 29.334 -4.357 27.046 C-4.399 23.707 -4.416 20.37 -4.426 17.031 C-4.443 16.012 -4.461 14.994 -4.479 13.944 C-4.461 8.049 -4.101 4.401 0 0 Z " fill="#F3F4F3" transform="translate(1269,191)"/>
<path d="M0 0 C6.014 0.41 8.9 2.599 12.797 7.055 C16.171 11.195 18.713 14.725 20 20 C20.33 20.66 20.66 21.32 21 22 C22.118 29.501 22.252 37.009 22.295 44.582 C22.307 45.977 22.327 47.372 22.357 48.766 C22.628 61.581 21.105 73.905 13.5 84.625 C13.122 85.196 12.745 85.767 12.355 86.355 C10.189 89.564 7.927 92.458 5 95 C4.34 95 3.68 95 3 95 C3 95.66 3 96.32 3 97 C1.35 97 -0.3 97 -2 97 C-1.893 84.5 -1.78 72.001 -1.661 59.501 C-1.605 53.698 -1.552 47.895 -1.503 42.091 C-1.455 36.495 -1.403 30.9 -1.347 25.304 C-1.327 23.164 -1.308 21.024 -1.291 18.885 C-1.267 15.898 -1.237 12.912 -1.205 9.926 C-1.2 9.032 -1.194 8.138 -1.188 7.217 C-1.114 1.114 -1.114 1.114 0 0 Z " fill="#F4F6F4" transform="translate(1829,187)"/>
<path d="M0 0 C7.646 6.974 11.819 17.445 12.438 27.688 C12.34 31.047 12.155 31.801 10 34.562 C5.855 36.549 3.583 36.582 -1 36 C-4.949 33.017 -5.637 30.338 -6.438 25.562 C-7.562 19.989 -8.572 17.471 -13 14 C-13 13.34 -13 12.68 -13 12 C-13.99 12 -14.98 12 -16 12 C-16 11.34 -16 10.68 -16 10 C-26.032 10.364 -26.032 10.364 -34.25 15.438 C-37.278 19.556 -37.783 23.526 -38.426 28.5 C-39.054 31.235 -39.69 32.324 -41.75 34.188 C-45.308 36.172 -47.005 36.608 -51 36 C-54.343 34.793 -54.947 34.079 -57 31 C-57.543 20.294 -53.762 10.112 -46.906 2.008 C-34.358 -11.208 -13.938 -11.812 0 0 Z " fill="#F8F9F7" transform="translate(452,266)"/>
<path d="M0 0 C0.99 0 1.98 0 3 0 C3.027 2.146 3.047 4.292 3.062 6.438 C3.074 7.632 3.086 8.827 3.098 10.059 C2.905 17.831 1.936 24.325 -1.125 31.5 C-1.438 32.24 -1.751 32.981 -2.073 33.744 C-6.943 44.847 -15.031 53.158 -25 60 C-25.66 60 -26.32 60 -27 60 C-27.723 51.681 -24.319 44.954 -20 38 C-22.063 38.622 -24.126 39.248 -26.188 39.875 C-27.336 40.223 -28.485 40.571 -29.668 40.93 C-32.924 41.923 -32.924 41.923 -35.688 43.125 C-38.834 44.316 -41.669 44.131 -45 44 C-44.512 39.396 -42.795 37.174 -39.688 33.812 C-38.908 32.953 -38.128 32.093 -37.324 31.207 C-35.244 29.231 -33.629 28.077 -31 27 C-33 27.333 -35 27.667 -37 28 C-38.671 28.217 -38.671 28.217 -40.375 28.438 C-41.241 28.623 -42.108 28.809 -43 29 C-43 29.66 -43 30.32 -43 31 C-44.32 31 -45.64 31 -47 31 C-46.243 25.703 -44.151 21.46 -40 18 C-39.01 17.67 -38.02 17.34 -37 17 C-43.93 17 -50.86 17 -58 17 C-55.345 13.018 -52.256 11.542 -47.624 10.429 C-44.996 9.999 -42.492 9.827 -39.832 9.754 C-38.856 9.721 -37.879 9.688 -36.873 9.654 C-34.852 9.594 -32.831 9.536 -30.811 9.482 C-24.496 9.263 -18.05 8.984 -12 7 C-11.67 6.34 -11.34 5.68 -11 5 C-9.004 4.219 -9.004 4.219 -6.562 3.5 C-2.906 2.427 -2.906 2.427 0 0 Z " fill="#F0F2F0" transform="translate(1216,271)"/>
<path d="M0 0 C10.235 7.361 15.668 13.436 18 26 C18.485 29.925 18.29 33.148 17 36.938 C14.457 39.56 12.667 39.806 9.133 40.25 C6.054 39.889 4.401 38.955 2 37 C1.145 34.082 1.145 34.082 0.812 30.812 C0.603 28.867 0.349 26.925 0 25 C-0.66 25 -1.32 25 -2 25 C-2.268 24.092 -2.536 23.185 -2.812 22.25 C-4.247 18.323 -5.516 17.252 -9 15 C-12.339 14.309 -12.339 14.309 -15.812 14.25 C-16.974 14.193 -18.135 14.137 -19.332 14.078 C-20.212 14.052 -21.093 14.027 -22 14 C-22 14.66 -22 15.32 -22 16 C-22.722 16.33 -23.444 16.66 -24.188 17 C-29.313 20.645 -31.582 26.957 -33.125 32.938 C-33.988 35.959 -34.532 37.149 -37 39 C-40.092 40.546 -42.594 40.294 -46 40 C-48.438 38.688 -48.438 38.688 -50 36 C-51.688 26.654 -48.345 18.55 -43.578 10.641 C-37.67 2.192 -30.688 -1.073 -20.801 -3.34 C-13.348 -4.634 -6.43 -4.241 0 0 Z " fill="#F9FAF8" transform="translate(210,262)"/>
<path d="M0 0 C0.33 0 0.66 0 1 0 C1.223 2.182 1.374 4.372 1.5 6.562 C1.561 7.561 1.561 7.561 1.623 8.58 C1.798 11.447 1.961 14.315 2.125 17.183 C2.246 19.268 2.373 21.353 2.5 23.438 C2.572 24.694 2.644 25.951 2.719 27.246 C2.812 28.155 2.904 29.064 3 30 C3.33 30 3.66 30 4 30 C4 36.93 4 43.86 4 51 C3.34 51 2.68 51 2 51 C1.589 48.256 1.589 48.256 1.367 44.414 C1.305 43.387 1.305 43.387 1.241 42.339 C1.108 40.102 0.991 37.863 0.875 35.625 C0.789 34.106 0.704 32.587 0.618 31.069 C0.05 20.708 -0.263 10.376 0 0 Z " fill="#909794" transform="translate(655,564)"/>
<path d="M0 0 C1.98 0.99 1.98 0.99 4 2 C3.01 2 2.02 2 1 2 C0.67 1.34 0.34 0.68 0 0 Z M9 1 C11.944 3.789 14.494 6.817 17 10 C17 10.66 17 11.32 17 12 C12.329 10.443 8.913 7.916 5 5 C6.667 5 8.333 5 10 5 C9.67 3.68 9.34 2.36 9 1 Z " fill="#B6C3BD" transform="translate(258,512)"/>
<path d="M0 0 C-1.408 3.215 -3.103 5.322 -5.625 7.75 C-6.572 8.67 -6.572 8.67 -7.539 9.609 C-8.262 10.298 -8.262 10.298 -9 11 C-9 7.26 -8.066 6.547 -5.625 3.812 C-4.999 3.097 -4.372 2.382 -3.727 1.645 C-2 0 -2 0 0 0 Z " fill="#464947" transform="translate(1007,175)"/>
<path d="M0 0 C0 3 0 3 -2.375 5.75 C-3.674 6.864 -3.674 6.864 -5 8 C-5.66 7.67 -6.32 7.34 -7 7 C-6.875 4.438 -6.875 4.438 -6 2 C-4.68 2 -3.36 2 -2 2 C-1.34 1.34 -0.68 0.68 0 0 Z " fill="#343434" transform="translate(1306,435)"/>
<path d="M0 0 C-2.415 2.924 -4.268 3.556 -8 4 C-9.666 4.037 -11.334 4.048 -13 4 C-8.626 1.084 -5.295 -0.303 0 0 Z " fill="#777C79" transform="translate(1186,297)"/>
<path d="M0 0 C0.66 0.33 1.32 0.66 2 1 C1.031 1.866 0.061 2.732 -0.938 3.625 C-3.935 6.58 -4.696 8.74 -5 13 C-5.33 13 -5.66 13 -6 13 C-6.717 5.951 -6.717 5.951 -4.734 3.32 C-3.125 1.938 -3.125 1.938 0 0 Z " fill="#535453" transform="translate(799,173)"/>
<path d="M0 0 C0.99 0.33 1.98 0.66 3 1 C1.35 2.65 -0.3 4.3 -2 6 C-1.125 1.125 -1.125 1.125 0 0 Z " fill="#BBC7C1" transform="translate(96,241)"/>
<path d="M0 0 C0.66 0.99 1.32 1.98 2 3 C0.68 3.33 -0.64 3.66 -2 4 C-1.34 2.68 -0.68 1.36 0 0 Z " fill="#AAB9B2" transform="translate(351,519)"/>
<path d="M0 0 C0.66 0.33 1.32 0.66 2 1 C2 1.66 2 2.32 2 3 C0.68 2.34 -0.64 1.68 -2 1 C-1.34 0.67 -0.68 0.34 0 0 Z " fill="#9DADA5" transform="translate(273,521)"/>
</svg>