<svg version="1.1" xmlns="http://www.w3.org/2000/svg" viewBox="0 0 1935 630" preserveAspectRatio="xMidYMid meet" xmlns:xlink="http://www.w3.org/1999/xlink" xmlns:svgjs="http://svgjs.dev/svgjs">
<path d="M0 0 C638.55 0 1277.1 0 1935 0 C1935 207.9 1935 415.8 1935 630 C1296.45 630 657.9 630 0 630 C0 422.1 0 214.2 0 0 Z " fill="#FDFDFC" transform="translate(0,0)"></path>
<path d="M0 0 C2.626 1.206 5.215 2.469 7.801 3.759 C9.682 4.678 11.564 5.596 13.446 6.513 C14.349 6.957 15.252 7.4 16.182 7.857 C19.262 9.357 22.368 10.783 25.489 12.197 C30.189 14.359 34.852 16.588 39.489 18.884 C40.489 19.38 40.489 19.38 41.51 19.885 C45.053 21.667 48.517 23.534 51.934 25.548 C52.634 25.959 53.334 26.369 54.056 26.791 C55.382 27.576 56.701 28.375 58.009 29.19 C63.382 32.374 68.64 33.777 74.886 32.686 C77.082 32.106 79.215 31.432 81.364 30.697 C82.804 30.227 84.245 29.761 85.688 29.298 C86.364 29.078 87.04 28.858 87.736 28.631 C89.676 28.072 89.676 28.072 93.133 27.533 C93.972 27.381 94.811 27.228 95.676 27.072 C96.006 26.412 96.336 25.752 96.676 25.072 C98.766 24.396 98.766 24.396 101.614 23.759 C113.041 21.054 124.316 17.945 135.426 14.134 C143.142 11.488 150.941 9.296 158.82 7.19 C166.925 5.023 174.96 2.697 182.895 -0.038 C185.676 -0.928 185.676 -0.928 187.676 -0.928 C187.752 6.156 187.805 13.24 187.841 20.324 C187.856 22.736 187.876 25.147 187.902 27.559 C187.939 31.019 187.956 34.479 187.969 37.939 C187.984 39.022 188 40.106 188.016 41.222 C188.016 42.223 188.016 43.224 188.017 44.255 C188.027 45.581 188.027 45.581 188.037 46.933 C187.918 47.639 187.799 48.345 187.676 49.072 C184.73 51.036 182.907 51.645 179.52 52.439 C178.496 52.685 177.473 52.931 176.418 53.185 C174.288 53.686 172.158 54.186 170.028 54.685 C163.859 56.17 157.978 57.962 152.043 60.206 C149.37 61.184 146.711 61.865 143.926 62.447 C139.192 63.566 134.782 65.142 130.301 67.009 C125.38 69.058 120.505 70.808 115.364 72.259 C114.232 72.585 113.1 72.912 111.934 73.248 C108.676 74.072 108.676 74.072 105.543 74.49 C101.798 75.085 101.798 75.085 98.676 77.072 C97.347 84.06 99.602 90.867 101.449 97.564 C104.381 108.24 106.468 119.104 108.676 129.947 C112.264 147.542 112.264 147.542 116.252 165.049 C118.265 173.454 119.997 181.917 121.754 190.378 C122.197 192.508 122.644 194.638 123.09 196.767 C123.347 198.005 123.605 199.242 123.87 200.518 C124.423 202.958 125.061 205.381 125.767 207.782 C126.751 211.344 126.826 214.395 126.676 218.072 C127.336 218.072 127.996 218.072 128.676 218.072 C129.443 220.726 130.06 223.308 130.614 226.009 C130.787 226.821 130.96 227.633 131.139 228.469 C132.427 234.599 133.542 240.755 134.599 246.928 C136.311 258.403 136.311 258.403 139.653 269.416 C141.085 273.133 141.748 276.915 142.489 280.822 C142.837 282.615 143.186 284.408 143.535 286.201 C143.719 287.151 143.903 288.101 144.092 289.08 C144.696 292.172 145.316 295.261 145.942 298.349 C147.817 307.615 149.68 316.871 151.239 326.197 C152.14 331.583 153.339 336.815 154.801 342.072 C155.428 344.405 156.053 346.738 156.676 349.072 C156.903 349.854 157.13 350.637 157.364 351.443 C159.77 362.808 150.609 376.58 145.567 386.369 C142.517 392.291 139.808 398.365 137.239 404.509 C135.374 408.76 133.287 412.876 131.176 417.009 C129.555 420.318 128.125 423.684 126.676 427.072 C125.525 429.57 124.328 432.042 123.114 434.509 C122.81 435.145 122.506 435.782 122.194 436.437 C121.416 438.014 120.553 439.548 119.676 441.072 C119.016 441.072 118.356 441.072 117.676 441.072 C118.84 446.573 120.111 448.828 124.676 452.072 C124.676 452.732 124.676 453.392 124.676 454.072 C125.214 454.328 125.751 454.585 126.305 454.849 C129.597 456.546 131.982 459.079 134.614 461.634 C141.23 467.916 148.466 473.967 156.676 478.072 C156.131 477.362 156.131 477.362 155.574 476.638 C142.021 458.81 142.021 458.81 142.223 447.669 C143.041 442.981 145.712 439.681 148.676 436.072 C149.254 435.309 149.831 434.546 150.426 433.759 C154.113 430.994 158.377 429.648 162.676 428.072 C164.326 427.412 165.976 426.752 167.676 426.072 C174.606 426.072 181.536 426.072 188.676 426.072 C188.676 462.372 188.676 498.672 188.676 536.072 C173.948 536.072 173.948 536.072 168.864 534.697 C167.867 534.442 166.871 534.186 165.844 533.923 C165.129 533.642 164.413 533.361 163.676 533.072 C163.676 532.412 163.676 531.752 163.676 531.072 C161.825 530.866 159.974 530.665 158.121 530.482 C153.774 529.753 149.549 528.175 145.676 526.072 C145.676 525.412 145.676 524.752 145.676 524.072 C143.765 523.523 143.765 523.523 141.426 523.197 C137.219 522.365 135.583 521.269 132.676 518.072 C131.669 517.667 130.663 517.262 129.625 516.845 C124.771 514.845 120.789 511.773 116.614 508.634 C115.781 508.013 114.948 507.392 114.09 506.752 C103.264 498.6 93.206 489.894 83.785 480.154 C81.853 478.031 81.853 478.031 79.676 477.072 C79.676 476.412 79.676 475.752 79.676 475.072 C79.104 474.787 78.531 474.502 77.942 474.208 C75.192 472.829 73.55 471.104 71.426 468.884 C68.061 465.443 64.623 462.216 60.973 459.083 C57.446 455.995 54.024 452.794 50.595 449.598 C47.694 446.902 44.757 444.261 41.766 441.666 C37.647 438.08 33.693 434.337 29.739 430.572 C24.86 425.959 19.974 421.541 14.594 417.513 C7.747 412.368 1.799 406.28 -4.137 400.134 C-6.974 397.239 -9.777 394.645 -13.105 392.322 C-15.986 390.308 -17.824 388.39 -19.976 385.65 C-22.061 383.209 -24.497 381.227 -26.929 379.142 C-36.578 370.8 -45.625 361.878 -54.524 352.747 C-58.676 348.532 -62.816 344.729 -67.671 341.338 C-69.745 339.749 -71.215 337.803 -72.808 335.748 C-74.806 333.538 -77.053 331.797 -79.386 329.947 C-83.678 326.526 -87.568 322.933 -91.386 319.009 C-94.927 315.372 -98.472 312.042 -102.511 308.947 C-108.029 304.697 -114.166 299.387 -117.324 293.072 C-117.596 288.885 -117.196 286.03 -115.386 282.259 C-114.71 280.844 -114.71 280.844 -114.019 279.4 C-111.603 274.657 -109.085 269.97 -106.564 265.282 C-104.113 260.686 -101.973 256.096 -100.156 251.208 C-99.295 248.998 -98.286 246.929 -97.199 244.822 C-96.062 242.614 -95.176 240.629 -94.386 238.259 C-93.14 234.521 -91.531 231.042 -89.883 227.466 C-87.982 223.326 -86.116 219.17 -84.261 215.009 C-83.911 214.223 -83.56 213.437 -83.199 212.626 C-81.466 208.721 -79.792 204.812 -78.261 200.822 C-76.473 196.207 -74.222 191.866 -71.967 187.465 C-69.432 182.445 -67.401 177.318 -65.445 172.052 C-63.53 166.962 -61.547 161.951 -58.574 157.384 C-56.924 154.331 -56.911 152.511 -57.324 149.072 C-57.993 147.433 -58.673 145.797 -59.422 144.193 C-60.485 141.694 -61.241 139.177 -62.011 136.572 C-64.008 129.928 -66.239 123.376 -68.511 116.822 C-68.869 115.785 -69.226 114.748 -69.594 113.679 C-69.932 112.71 -70.269 111.742 -70.617 110.744 C-70.921 109.868 -71.226 108.992 -71.54 108.09 C-72.154 106.107 -72.154 106.107 -73.324 105.072 C-73.648 103.369 -73.933 101.659 -74.199 99.947 C-74.785 96.506 -75.407 93.518 -76.949 90.384 C-79.789 83.542 -78.211 77.805 -76.176 70.978 C-75.895 70.349 -75.614 69.72 -75.324 69.072 C-74.664 69.072 -74.004 69.072 -73.324 69.072 C-73.084 67.172 -72.851 65.271 -72.659 63.366 C-72.118 59.664 -70.767 56.344 -69.386 52.884 C-69.122 52.199 -68.857 51.514 -68.584 50.808 C-67.489 47.986 -66.367 45.177 -65.219 42.376 C-64.322 40.068 -63.619 37.768 -62.949 35.384 C-62.682 34.518 -62.415 33.652 -62.14 32.759 C-61.606 31.001 -61.112 29.229 -60.664 27.447 C-58.965 21.848 -56.863 19.295 -51.824 16.259 C-46.68 13.584 -41.389 11.325 -36 9.193 C-33.742 8.247 -31.771 7.233 -29.699 5.947 C-26.089 3.941 -22.703 2.887 -18.742 1.802 C-16.559 1.143 -14.673 0.333 -12.636 -0.678 C-7.959 -2.443 -4.528 -1.809 0 0 Z " fill="#67AA6F" transform="translate(118.323974609375,45.92822265625)"></path>
<path d="M0 0 C1.012 0.307 1.012 0.307 2.045 0.62 C2.936 0.889 3.828 1.158 4.747 1.436 C5.628 1.702 6.509 1.969 7.417 2.243 C10.881 3.258 14.363 4.101 17.875 4.938 C23.81 6.378 29.552 8.122 35.324 10.129 C38.5 11.163 41.681 11.844 44.949 12.512 C47.58 13.138 50.022 14.161 52.531 15.156 C55.823 16.281 59.183 17.067 62.562 17.875 C69.044 19.435 75.282 21.394 81.586 23.574 C88.412 25.851 95.395 27.646 102.345 29.501 C110.449 31.705 110.449 31.705 114.309 33.773 C118.001 35.456 120.102 34.997 124 34 C126.419 32.886 128.642 31.758 130.938 30.438 C132.251 29.708 133.567 28.98 134.883 28.254 C135.557 27.88 136.232 27.507 136.927 27.122 C140.34 25.275 143.827 23.581 147.312 21.875 C151.793 19.671 156.132 17.393 160.375 14.75 C164.259 12.338 168.146 10.672 172.418 9.07 C175.326 7.865 178.004 6.413 180.75 4.875 C187.828 0.955 193.845 -1.263 202 0 C205.806 1.381 209.358 3.167 212.964 4.998 C217.065 7.016 221.261 8.832 225.438 10.688 C227.917 11.793 230.394 12.903 232.863 14.033 C234.634 14.834 236.426 15.589 238.223 16.332 C245.685 20.814 248.201 27.123 250.375 35.25 C250.634 36.147 250.893 37.044 251.16 37.969 C253 44.471 253 44.471 253 48 C253.66 48 254.32 48 255 48 C255.73 49.817 255.73 49.817 256.402 52.348 C256.778 53.721 256.778 53.721 257.162 55.123 C257.418 56.093 257.674 57.063 257.938 58.062 C259.904 65.638 259.904 65.638 262.691 72.934 C264 76 264 76 264 80 C264.66 80 265.32 80 266 80 C266.196 84.982 265.672 88.834 264.059 93.543 C263.643 94.772 263.227 96.002 262.799 97.268 C262.346 98.575 261.892 99.881 261.438 101.188 C260.978 102.535 260.518 103.882 260.06 105.23 C258.72 109.158 257.361 113.079 256 117 C255.638 118.048 255.277 119.096 254.904 120.176 C252.244 127.879 249.577 135.553 246.562 143.125 C244.703 148.117 244.588 152.726 245 158 C245.66 158 246.32 158 247 158 C247.938 160.254 247.938 160.254 249 163.562 C251.32 170.477 254.134 177.136 257.062 183.812 C257.486 184.778 257.909 185.744 258.346 186.739 C259.922 190.318 261.506 193.894 263.1 197.466 C265.057 201.852 266.958 206.256 268.812 210.688 C270.827 215.422 272.997 220.001 275.375 224.562 C278.774 231.233 281.404 238.089 284.015 245.1 C287.9 255.502 292.221 265.625 297.312 275.5 C299.612 280.025 301.137 283.996 302 289 C302.186 289.969 302.371 290.939 302.562 291.938 C300.7 302.079 288.627 310.729 281 317 C279.861 318.154 279.861 318.154 278.699 319.332 C274.994 322.994 270.97 326.208 266.938 329.5 C264.138 331.883 261.562 334.366 259 337 C254.481 341.6 249.901 346.009 245.008 350.211 C242.878 352.108 240.876 354.093 238.875 356.125 C235.724 359.314 232.568 362.281 229 365 C228.34 365 227.68 365 227 365 C226.743 365.55 226.487 366.101 226.223 366.668 C224.554 369.851 222.084 371.953 219.438 374.312 C218.9 374.8 218.363 375.287 217.81 375.789 C214.726 378.556 211.574 381.148 208.25 383.625 C204.364 386.552 201.301 389.842 198.215 393.594 C195.691 396.336 192.963 398.705 190.143 401.135 C186.68 404.149 183.343 407.293 180 410.438 C178.949 411.424 178.949 411.424 177.877 412.43 C173.745 416.319 169.692 420.269 165.715 424.316 C163.267 426.72 160.661 428.924 158.059 431.156 C155.816 433.165 153.726 435.281 151.625 437.438 C147.888 441.225 143.941 444.494 139.75 447.762 C136.468 450.433 133.354 453.251 130.25 456.125 C129.719 456.616 129.188 457.107 128.642 457.613 C125.935 460.136 123.308 462.708 120.734 465.367 C118 468 118 468 116 468 C116 468.66 116 469.32 116 470 C114.566 471.445 114.566 471.445 112.562 473.125 C111.466 474.057 111.466 474.057 110.348 475.008 C109.186 475.994 109.186 475.994 108 477 C106.496 478.329 104.996 479.662 103.5 481 C101.36 482.91 99.219 484.813 97.039 486.676 C93.048 490.089 89.347 493.668 85.688 497.438 C80.57 502.658 75.032 506.889 69 511 C67.187 512.269 65.374 513.54 63.562 514.812 C62.78 515.355 61.998 515.898 61.191 516.457 C59.745 517.475 58.321 518.526 56.922 519.609 C54.699 521.218 52.358 522.166 49.824 523.191 C47.743 524.063 47.743 524.063 45 525.875 C31.097 533.993 13.591 535.886 -2 537 C-2 500.7 -2 464.4 -2 427 C27.513 427 27.513 427 35.773 434.527 C36.508 435.343 37.243 436.159 38 437 C38.722 437.784 39.444 438.567 40.188 439.375 C43.54 444.23 44.387 449.199 44 455 C43.271 457.765 42.284 460.399 41.25 463.062 C40.997 463.757 40.745 464.451 40.484 465.166 C38.882 469.384 37.053 472.596 34 476 C41.617 471.868 47.699 466.909 54 461 C55.411 459.765 56.827 458.535 58.25 457.312 C59.199 456.473 59.199 456.473 60.168 455.617 C61.385 454.543 62.617 453.485 63.863 452.445 C65.797 450.807 65.797 450.807 68 448 C67.717 443.693 66.445 440.467 64.438 436.688 C61.873 431.731 59.427 426.741 57.062 421.688 C56.763 421.05 56.464 420.412 56.156 419.755 C55.503 418.36 54.851 416.965 54.2 415.569 C53.291 413.623 52.377 411.679 51.462 409.735 C47.236 400.752 43.168 391.705 39.173 382.617 C38.173 380.341 37.17 378.067 36.166 375.793 C35.521 374.328 34.875 372.863 34.23 371.398 C33.935 370.728 33.639 370.057 33.334 369.366 C28.066 357.372 28.693 349.697 32 337 C32.482 335.856 32.482 335.856 32.974 334.688 C34.113 331.703 34.697 328.86 35.262 325.715 C35.49 324.476 35.719 323.236 35.954 321.959 C36.073 321.304 36.192 320.649 36.315 319.974 C38.618 307.376 41.39 295.001 44.6 282.6 C46.361 275.737 47.834 268.929 48.943 261.934 C49.771 256.875 51.007 252 52.375 247.062 C55.921 234.208 58.311 221.059 60.518 207.914 C60.766 206.456 60.766 206.456 61.02 204.969 C61.161 204.107 61.303 203.245 61.448 202.357 C62 200 62 200 63.002 198.002 C64.172 195.656 64.535 193.591 64.941 191.004 C65.979 184.899 67.435 178.942 68.938 172.938 C70.728 165.653 72.388 158.42 73.5 151 C74.768 142.56 76.765 134.34 78.8 126.056 C81.518 114.975 83.812 103.88 85.473 92.586 C86.025 89.879 86.97 87.557 88 85 C88.439 82.797 88.439 82.797 88.625 80.688 C88.811 78.862 88.811 78.862 89 77 C87.827 76.894 86.654 76.789 85.445 76.68 C81.237 76.152 77.766 74.844 73.875 73.125 C67.767 70.522 61.857 69.02 55.32 67.77 C51.037 66.777 47.259 65.099 43.25 63.324 C33.062 59.173 22.11 56.698 11.465 53.992 C10.321 53.665 9.178 53.337 8 53 C7.32 52.882 6.64 52.764 5.939 52.642 C3.544 52.071 1.956 51.513 0 50 C-1.182 46.284 -0.929 42.635 -0.781 38.77 C-0.77 37.664 -0.759 36.558 -0.747 35.419 C-0.702 31.882 -0.602 28.349 -0.5 24.812 C-0.46 22.417 -0.423 20.022 -0.391 17.627 C-0.302 11.75 -0.168 5.875 0 0 Z " fill="#4E8A9A" transform="translate(317,45)"></path>
<path d="M0 0 C0 0.66 0 1.32 0 2 C1.665 2.672 3.332 3.338 5 4 C6.941 5.553 6.941 5.553 8.777 7.379 C9.456 8.054 10.135 8.729 10.834 9.424 C11.528 10.13 12.222 10.835 12.938 11.562 C13.628 12.241 14.318 12.92 15.029 13.619 C30.128 28.804 35.461 49.156 37.543 69.996 C37.861 73.163 38.404 76.253 38.98 79.383 C40.333 87.359 40.729 95.371 41.125 103.438 C41.166 104.256 41.208 105.075 41.25 105.919 C42.406 129.241 43.277 152.747 40.688 176 C40.57 177.056 40.452 178.112 40.331 179.2 C39.678 184.197 38.956 187.805 36 192 C35.374 193.982 35.374 193.982 35.062 196 C34.05 201.096 32.503 205.971 30.938 210.922 C30.188 213.383 29.553 215.804 29 218.312 C28.039 221.857 26.792 224.686 25.078 227.902 C23.507 230.959 22.23 234.133 20.93 237.312 C20.623 237.869 20.316 238.426 20 239 C19.34 239 18.68 239 18 239 C17.835 239.825 17.67 240.65 17.5 241.5 C17.335 242.325 17.17 243.15 17 244 C16.34 244 15.68 244 15 244 C14.291 245.649 13.634 247.321 13 249 C8.98 256.367 4.521 261.783 -2 267 C-2.525 267.538 -3.049 268.075 -3.59 268.629 C-5.488 270.474 -7.544 271.029 -10 272 C-10.969 272.681 -11.939 273.361 -12.938 274.062 C-20.175 278.641 -32.549 278.163 -40.82 276.398 C-43 275.625 -43 275.625 -46 274 C-46 273.34 -46 272.68 -46 272 C-46.66 272 -47.32 272 -48 272 C-50.322 267.355 -49.4 260.784 -48.125 255.875 C-47.754 254.926 -47.382 253.978 -47 253 C-46.34 253 -45.68 253 -45 253 C-44.529 204.765 -44.529 204.765 -48.483 156.841 C-49.024 152.821 -49.342 148.82 -49.561 144.772 C-49.603 143.992 -49.645 143.212 -49.689 142.408 C-50.089 134.342 -50.101 126.289 -50.045 118.215 C-50.027 115.562 -50.017 112.91 -50.009 110.258 C-49.985 102.732 -49.949 95.206 -49.904 87.68 C-49.877 83.036 -49.86 78.392 -49.849 73.748 C-49.843 72.003 -49.833 70.258 -49.819 68.513 C-49.709 54.696 -50.222 41.108 -54.125 27.75 C-58.227 12.371 -58.227 12.371 -54.754 5.555 C-50.868 0.147 -47.477 -2.113 -40.793 -3.244 C-12.212 -7.632 -12.212 -7.632 0 0 Z " fill="#090909" transform="translate(1514,176)"></path>
<path d="M0 0 C0.763 0.186 1.526 0.371 2.312 0.562 C2.869 0.707 3.426 0.851 4 1 C4 1.66 4 2.32 4 3 C4.536 3.268 5.072 3.536 5.625 3.812 C18.565 10.283 27.212 25.799 31.7 39.069 C32.987 43.337 33.993 47.657 35 52 C35.322 53.074 35.645 54.148 35.977 55.254 C45.461 89.969 44.153 129.302 42.625 165 C42.594 165.782 42.564 166.564 42.532 167.37 C42.324 171.126 41.754 173.713 40 177 C39.438 179.545 38.941 182.059 38.5 184.625 C38.243 186.056 37.985 187.487 37.727 188.918 C37.603 189.613 37.48 190.309 37.353 191.025 C36.881 193.667 36.386 196.303 35.875 198.938 C35.728 199.71 35.581 200.482 35.43 201.277 C35 203 35 203 34 204 C33.918 205.134 33.835 206.269 33.75 207.438 C33.241 211.976 31.48 215.34 29.336 219.324 C27.465 223.072 26.189 226.968 24.895 230.945 C24.599 231.623 24.304 232.301 24 233 C23.34 233 22.68 233 22 233 C21.835 233.99 21.67 234.98 21.5 236 C21.335 236.99 21.17 237.98 21 239 C20.34 239 19.68 239 19 239 C18.876 239.701 18.753 240.403 18.625 241.125 C17.832 244.773 16.164 246.971 14 250 C13.299 251.114 12.597 252.228 11.875 253.375 C11.256 254.241 10.638 255.108 10 256 C9.34 256 8.68 256 8 256 C7.331 257.332 6.665 258.666 6 260 C-0.075 267.419 -5.77 271.542 -15 274 C-16.176 274.413 -17.351 274.825 -18.562 275.25 C-27.884 277.284 -35.569 275.716 -44 271.5 C-46 270 -46 270 -47 267 C-47.222 263.23 -47.082 260.276 -46.005 256.643 C-44.419 250.49 -44.715 244.219 -44.734 237.906 C-44.733 236.515 -44.731 235.123 -44.729 233.731 C-44.726 230.806 -44.73 227.881 -44.739 224.956 C-44.75 221.313 -44.744 217.67 -44.732 214.026 C-44.667 189.763 -45.884 165.728 -48.125 141.562 C-49.115 130.006 -49.188 118.466 -49.188 106.875 C-49.188 106.006 -49.189 105.137 -49.19 104.241 C-49.189 94.369 -48.917 84.578 -48.234 74.73 C-47.26 59.193 -47.178 43.626 -50.344 28.344 C-51 25 -51 25 -51 21 C-51.66 21 -52.32 21 -53 21 C-55.014 16.973 -54.579 12.369 -54 8 C-51.839 2.386 -47.567 -0.642 -42.438 -3.5 C-28.985 -9.181 -12.285 -7.722 0 0 Z " fill="#0A0B0A" transform="translate(931,177)"></path>
<path d="M0 0 C12.195 9.049 21.612 22.419 24.691 37.469 C24.922 42.195 24.877 46.925 24.879 51.656 C24.891 52.946 24.903 54.236 24.916 55.564 C24.927 62.475 24.669 68.827 22.691 75.469 C22.445 76.327 22.199 77.186 21.945 78.07 C20.386 82.633 18.813 87.134 16.691 91.469 C16.031 91.469 15.371 91.469 14.691 91.469 C14.11 93.281 14.11 93.281 13.691 95.469 C11.44 102.358 7.77 106.97 2.715 112.109 C0.617 114.556 -0.661 116.299 -1.309 119.469 C0.235 121.119 0.235 121.119 2.566 122.156 C3.965 122.884 5.347 123.646 6.691 124.469 C6.691 125.129 6.691 125.789 6.691 126.469 C7.402 126.702 8.112 126.935 8.844 127.176 C12.814 128.978 14.678 131.723 17.254 135.156 C17.722 135.756 18.191 136.356 18.674 136.975 C24.433 144.473 27.363 150.936 29.316 160.156 C29.721 162.015 30.129 163.873 30.543 165.73 C30.717 166.545 30.89 167.359 31.069 168.198 C31.61 170.482 31.61 170.482 32.725 172.466 C36.561 180.416 34.875 192.26 34.879 200.844 C34.891 202.197 34.903 203.549 34.916 204.902 C34.918 206.19 34.92 207.478 34.922 208.805 C34.926 209.965 34.93 211.126 34.934 212.322 C34.691 215.471 33.969 217.609 32.691 220.469 C32.423 222.443 32.196 224.423 32.004 226.406 C30.875 234.419 27.549 240.45 23.691 247.469 C22.997 248.971 22.997 248.971 22.289 250.504 C20.452 253.914 18.19 256.655 15.566 259.469 C15.08 259.992 14.593 260.515 14.092 261.054 C8.183 267.248 2.108 271.437 -6.168 273.828 C-8.369 274.437 -8.369 274.437 -10.597 275.49 C-15.352 277.206 -20.241 276.796 -25.246 276.781 C-26.318 276.797 -27.39 276.813 -28.494 276.83 C-35.429 276.834 -39.922 276.219 -45.438 271.739 C-47.863 268.795 -47.786 267.189 -47.734 263.41 C-47.726 262.218 -47.718 261.027 -47.709 259.799 C-47.68 258.556 -47.651 257.312 -47.621 256.031 C-47.611 254.823 -47.602 253.614 -47.592 252.369 C-47.48 243.305 -47.48 243.305 -47.075 238.973 C-46.103 228.481 -46.19 218.023 -46.227 207.495 C-46.23 205.399 -46.233 203.303 -46.236 201.207 C-46.243 196.717 -46.252 192.226 -46.264 187.736 C-46.282 180.623 -46.292 173.51 -46.3 166.398 C-46.324 146.18 -46.36 125.962 -46.405 105.744 C-46.429 94.561 -46.446 83.377 -46.456 72.193 C-46.463 65.135 -46.478 58.077 -46.5 51.019 C-46.512 46.614 -46.516 42.209 -46.517 37.804 C-46.519 35.775 -46.524 33.746 -46.534 31.718 C-46.667 1.697 -46.667 1.697 -42.657 -3.792 C-31.542 -14.202 -11.094 -7.358 0 0 Z " fill="#090909" transform="translate(1291.30859375,177.53125)"></path>
<path d="M0 0 C5.538 3.077 5.538 3.077 7 6 C7.189 8.061 7.322 10.128 7.43 12.195 C7.501 13.461 7.573 14.727 7.646 16.031 C7.683 16.7 7.72 17.369 7.759 18.058 C8.34 28.374 9.119 38.416 11.285 48.547 C12.281 53.358 12.827 58.19 13.402 63.066 C14.195 69.741 15.107 76.401 16 83.062 C16.166 84.305 16.332 85.547 16.504 86.827 C16.667 88.05 16.831 89.274 17 90.535 C17.163 91.759 17.326 92.982 17.494 94.242 C17.841 96.815 18.194 99.387 18.553 101.959 C19.57 109.321 20.326 116.563 20.566 123.986 C20.749 128.141 21.43 131.876 22.51 135.885 C23.438 139.891 23.681 143.97 24 148.062 C24.08 149.033 24.161 150.004 24.244 151.004 C25.058 161.111 25.691 171.231 26.303 181.352 C26.775 189.144 26.775 189.144 27.555 196.91 C28.045 200.989 28.1 204.953 28.062 209.062 C28.053 210.373 28.044 211.684 28.035 213.035 C28.024 214.014 28.012 214.992 28 216 C28.66 216 29.32 216 30 216 C30.354 217.793 30.354 217.793 30.502 220.339 C30.592 221.762 30.592 221.762 30.684 223.214 C30.739 224.255 30.795 225.295 30.852 226.367 C30.915 227.431 30.979 228.495 31.045 229.591 C31.179 231.856 31.308 234.121 31.433 236.386 C31.622 239.826 31.825 243.264 32.031 246.703 C32.16 248.904 32.287 251.104 32.414 253.305 C32.503 254.835 32.503 254.835 32.594 256.396 C33.667 276.017 33.667 276.017 28.902 281.555 C26.038 283.731 23.837 283.863 20.316 283.535 C15.037 282.315 11.034 280.552 8 276 C7.755 273.73 7.755 273.73 7.76 271.041 C7.757 270.033 7.753 269.025 7.749 267.987 C7.753 266.899 7.757 265.812 7.762 264.691 C7.746 262.395 7.73 260.099 7.713 257.803 C7.696 254.177 7.688 250.552 7.695 246.927 C7.697 243.431 7.669 239.937 7.637 236.441 C7.652 234.813 7.652 234.813 7.668 233.152 C7.718 227.217 7.718 227.217 4.676 222.362 C-7.305 216.265 -21.803 215.356 -35 216 C-35.66 216.33 -36.32 216.66 -37 217 C-37.7 219.608 -38.284 222.169 -38.812 224.812 C-40.238 231.61 -41.82 238.34 -43.562 245.062 C-45.384 252.113 -46.87 259.137 -47.836 266.358 C-48.596 271.405 -50.184 274.822 -53 279 C-53.66 279 -54.32 279 -55 279 C-55 279.66 -55 280.32 -55 281 C-60.728 281.458 -63.5 280.558 -68 277 C-70 275 -70 275 -70.219 271.786 C-70.007 268.122 -69.432 264.973 -68.504 261.43 C-68.193 260.202 -67.881 258.975 -67.561 257.711 C-66.901 255.177 -66.24 252.643 -65.576 250.109 C-63.757 242.921 -62.56 236.131 -62.289 228.711 C-61.994 225.948 -61.295 224.416 -60 222 C-59.512 219.903 -59.512 219.903 -59.254 217.691 C-59.141 216.869 -59.027 216.047 -58.91 215.199 C-58.796 214.329 -58.681 213.459 -58.562 212.562 C-57.606 205.763 -56.431 199.137 -54.809 192.461 C-51.313 177.5 -49.034 162.287 -46.75 147.104 C-45.086 136.112 -45.086 136.112 -43.871 130.891 C-43.141 127.63 -42.78 124.817 -42.688 121.5 C-41.733 106.767 -37.709 92.161 -34.539 77.773 C-34.071 75.364 -33.798 73.068 -33.625 70.625 C-33.183 65.927 -31.695 61.664 -30.217 57.2 C-27.96 50.222 -26.28 43.126 -24.562 36 C-17.592 7.516 -17.592 7.516 -10 1 C-6.381 -0.206 -3.808 -0.323 0 0 Z " fill="#080808" transform="translate(1406,171)"></path>
<path d="M0 0 C1 1 2 2 3 3 C3.915 3.151 3.915 3.151 4.848 3.305 C7.88 4.284 8.903 5.98 10.812 8.5 C13.758 12.398 13.758 12.398 16.898 16.137 C27.812 28.647 28.179 44.99 28.188 60.75 C28.2 61.936 28.212 63.122 28.225 64.344 C28.252 80.767 24.684 95.258 18.484 110.348 C16.837 114.4 15.323 118.483 13.875 122.609 C13 125 13 125 12.125 126.891 C8.512 134.881 7.615 146.407 10.398 154.758 C11.289 158.078 11.567 161.466 11.938 164.875 C12.56 170.361 13.537 175.466 15.273 180.711 C17.391 187.382 18.228 194.201 18.656 201.164 C18.77 201.77 18.883 202.376 19 203 C19.66 203 20.32 203 21 203 C21.638 204.769 21.638 204.769 22.184 207.242 C22.389 208.145 22.595 209.047 22.807 209.977 C23.119 211.411 23.119 211.411 23.438 212.875 C24.863 219.279 26.426 225.563 28.36 231.834 C29.091 234.309 29.599 236.763 30 239.312 C31.806 250.691 31.806 250.691 35.688 261.438 C37.998 267.71 38.147 275.405 36.105 281.805 C35 284 35 284 33 286 C28.616 286.681 23.968 287.004 19.941 284.949 C18.312 283.625 18.312 283.625 16 281 C16 280.34 16 279.68 16 279 C15.34 279 14.68 279 14 279 C12.462 275.924 12.752 272.633 12.625 269.25 C12.302 262.534 11.371 256.28 9.82 249.723 C8.858 245.357 8.167 240.981 7.5 236.562 C6.504 222.882 6.504 222.882 2 211 C1.601 209.427 1.255 207.841 0.938 206.25 C0.761 205.389 0.584 204.528 0.402 203.641 C0.007 201.048 -0.071 198.618 0 196 C-0.66 196 -1.32 196 -2 196 C-2.746 193.719 -2.746 193.719 -3.438 190.5 C-3.695 189.317 -3.953 188.133 -4.219 186.914 C-4.748 184.264 -5.253 181.622 -5.719 178.961 C-6.94 172.001 -8.393 165.533 -11.02 158.941 C-12.716 153.853 -13.493 148.586 -14.387 143.309 C-14.817 140.135 -14.817 140.135 -16 138 C-15.999 139.083 -15.999 139.083 -15.999 140.188 C-15.992 157.757 -16.018 175.325 -16.08 192.893 C-16.11 201.389 -16.128 209.885 -16.12 218.381 C-16.113 225.786 -16.127 233.191 -16.166 240.596 C-16.186 244.517 -16.196 248.438 -16.18 252.359 C-16.166 256.05 -16.18 259.741 -16.215 263.432 C-16.227 265.431 -16.209 267.431 -16.19 269.43 C-16.31 277.991 -16.31 277.991 -18.312 280.919 C-21.811 283.945 -24.603 284.719 -29.039 284.43 C-33.679 283.413 -36.442 280.836 -39 277 C-39.249 274.87 -39.249 274.87 -39.247 272.35 C-39.251 271.389 -39.256 270.428 -39.26 269.438 C-39.254 268.381 -39.249 267.323 -39.243 266.233 C-39.245 265.111 -39.247 263.989 -39.249 262.833 C-39.252 259.053 -39.241 255.274 -39.23 251.495 C-39.229 248.793 -39.23 246.091 -39.231 243.39 C-39.231 236.036 -39.217 228.683 -39.198 221.33 C-39.187 216.74 -39.179 212.15 -39.171 207.56 C-39.149 194.855 -39.124 182.151 -39.084 169.446 C-39.081 168.633 -39.079 167.82 -39.076 166.982 C-39.074 166.167 -39.071 165.351 -39.069 164.511 C-39.063 162.86 -39.058 161.208 -39.053 159.556 C-39.051 158.736 -39.048 157.917 -39.046 157.073 C-39.005 143.791 -38.991 130.509 -38.989 117.227 C-38.987 103.595 -38.962 89.964 -38.915 76.332 C-38.889 68.677 -38.872 61.022 -38.881 53.366 C-38.888 46.848 -38.874 40.33 -38.834 33.812 C-38.814 30.486 -38.807 27.161 -38.82 23.834 C-38.832 20.229 -38.807 16.626 -38.773 13.021 C-38.785 11.968 -38.797 10.914 -38.81 9.829 C-38.691 2.948 -38.691 2.948 -36.717 0.241 C-27.991 -7.377 -9.364 -5.534 0 0 Z " fill="#0A0A0A" transform="translate(1845,171)"></path>
<path d="M0 0 C3 1 3 1 4.287 3.281 C4.707 4.273 5.126 5.264 5.559 6.285 C6.027 7.374 6.496 8.462 6.979 9.584 C7.46 10.732 7.941 11.88 8.438 13.062 C9.393 15.304 10.35 17.545 11.309 19.785 C11.769 20.863 12.229 21.941 12.703 23.051 C14.05 26.114 15.528 29.076 17.058 32.049 C18.137 34.283 19.045 36.554 19.949 38.863 C21.998 44.094 24.365 49.133 26.812 54.188 C27.694 56.025 28.576 57.862 29.457 59.699 C29.887 60.594 30.317 61.489 30.76 62.412 C32.526 66.099 34.269 69.796 36 73.5 C36.804 75.217 36.804 75.217 37.625 76.969 C38.079 77.969 38.533 78.969 39 80 C39.413 80.877 39.825 81.753 40.25 82.656 C41.145 85.453 41.258 86.348 40 89 C38.194 91.049 36.401 92.928 34.438 94.812 C33.888 95.35 33.339 95.888 32.773 96.442 C29.381 99.738 25.908 102.908 22.309 105.977 C19.054 108.829 15.907 111.791 12.75 114.75 C3.807 123.126 -5.206 131.418 -14.34 139.586 C-16.392 141.449 -18.422 143.328 -20.441 145.227 C-21.031 145.779 -21.621 146.331 -22.229 146.901 C-23.393 147.993 -24.554 149.09 -25.711 150.191 C-29.777 154 -29.777 154 -32 154 C-32.33 154.99 -32.66 155.98 -33 157 C-34.658 158.455 -36.377 159.842 -38.125 161.188 C-41.584 163.939 -44.694 166.585 -47.5 170 C-50.918 174.126 -54.903 177.242 -59.086 180.566 C-64.055 184.716 -68.488 189.362 -73 194 C-76.248 197.293 -79.559 200.471 -83 203.562 C-83.825 204.306 -84.65 205.05 -85.5 205.816 C-86.325 206.537 -87.15 207.258 -88 208 C-88.846 208.793 -89.691 209.586 -90.562 210.402 C-93 212 -93 212 -95.152 211.641 C-97.75 209.334 -98.432 207.019 -99.562 203.75 C-100.773 200.304 -101.973 197.054 -103.625 193.793 C-105.394 190.2 -105.487 187.968 -105 184 C-103.312 180.687 -103.312 180.687 -102.203 178.949 C-100.816 176.701 -99.702 174.383 -98.562 172 C-96.714 168.24 -94.635 164.985 -92.121 161.648 C-90.304 158.977 -89.243 155.972 -88 153 C-86.677 150.993 -85.342 148.994 -84 147 C-83.09 145.362 -82.196 143.715 -81.312 142.062 C-76.639 133.396 -71.525 124.985 -66.27 116.66 C-65.592 115.586 -65.592 115.586 -64.901 114.491 C-64.03 113.114 -63.154 111.739 -62.274 110.366 C-60.128 106.981 -58.439 103.757 -57 100 C-55.818 98.358 -54.633 96.717 -53.43 95.09 C-49.881 89.903 -47.078 84.196 -44.312 78.562 C-43 76 -43 76 -41.438 73.938 C-39.907 72.059 -39.907 72.059 -39.16 69.785 C-37.275 65.258 -34.499 61.285 -31.875 57.156 C-30.272 54.458 -29.109 51.92 -28 49 C-27.526 48.381 -27.051 47.762 -26.562 47.125 C-24.806 44.918 -24.806 44.918 -23.625 41.625 C-22.156 38.348 -20.608 36.361 -18.254 33.719 C-16.224 30.936 -15.228 27.798 -14.031 24.59 C-11.506 18.249 -7.77 12.655 -4 7 C-2.985 5.008 -1.981 3.009 -1 1 C-0.67 0.67 -0.34 0.34 0 0 Z " fill="#FBFCFA" transform="translate(523,240)"></path>
<path d="M0 0 C3.653 1.218 4.08 2.625 5.824 5.898 C7.559 9 9.603 11.875 11.633 14.789 C13.077 17.125 13.991 19.449 15 22 C15.946 23.686 16.926 25.353 17.938 27 C18.442 27.825 18.946 28.65 19.465 29.5 C20.493 31.175 21.522 32.849 22.551 34.523 C23.912 36.85 25.094 39.191 26.25 41.625 C29.408 48.017 32.925 54.925 38 60 C38.289 60.743 38.577 61.485 38.875 62.25 C39.953 65.144 39.953 65.144 42 68 C43.773 70.66 44.851 73.046 46 76 C46.66 76.66 47.32 77.32 48 78 C48.309 78.784 48.619 79.567 48.938 80.375 C49.857 82.975 49.857 82.975 51.375 84.812 C53.293 87.395 54.575 90.094 55.938 93 C56.956 95.05 56.956 95.05 58.445 96.883 C60.304 99.414 61.538 102.035 62.875 104.875 C64.562 108.329 66.116 111.445 68.688 114.312 C71.385 117.448 72.46 120.187 74 124 C74.66 124.66 75.32 125.32 76 126 C76.474 127.114 76.949 128.227 77.438 129.375 C78.757 132.437 79.956 134.444 82 137 C82.516 137.866 83.031 138.732 83.562 139.625 C84.917 142.076 84.917 142.076 87 144 C87.679 145.662 88.344 147.329 89 149 C89.883 150.582 90.801 152.144 91.75 153.688 C92.28 154.555 92.81 155.423 93.355 156.316 C93.898 157.202 94.441 158.088 95 159 C96.022 160.707 97.043 162.416 98.062 164.125 C99.913 167.219 101.807 170.276 103.75 173.312 C105.523 176.12 106.862 178.869 108 182 C108.33 182.33 108.66 182.66 109 183 C108.541 189.127 106.582 194.565 104.5 200.312 C104.019 201.671 104.019 201.671 103.527 203.057 C101.182 209.635 101.182 209.635 100 212 C99.01 212 98.02 212 97 212 C95.648 210.348 94.32 208.677 93 207 C91.869 205.983 90.717 204.991 89.551 204.016 C83.504 198.797 77.992 193.024 72.413 187.317 C70.985 185.859 69.552 184.408 68.117 182.957 C67.278 182.101 66.439 181.245 65.574 180.363 C62.88 177.89 60.072 175.973 57 174 C54.69 172.024 52.473 169.971 50.246 167.902 C48.044 165.928 48.044 165.928 45.434 164.492 C42.919 162.95 41.469 161.468 39.625 159.188 C36.849 155.886 33.941 153.163 30.617 150.43 C28.115 148.217 26.135 145.563 24 143 C22.322 141.473 20.603 140.021 18.844 138.59 C16.436 136.514 14.244 134.251 12 132 C9.988 130.115 7.969 128.239 5.938 126.375 C5.375 125.857 4.812 125.339 4.232 124.806 C3.064 123.733 1.897 122.66 0.729 121.587 C-0.927 120.067 -2.581 118.543 -4.234 117.02 C-8.529 113.066 -12.827 109.124 -17.25 105.312 C-20.662 102.359 -23.825 99.212 -26.965 95.973 C-29.054 93.948 -31.267 92.222 -33.562 90.438 C-36.946 87.461 -36.946 87.461 -37.375 83.812 C-36.1 79.259 -33.664 75.031 -31.484 70.859 C-30.349 68.673 -29.314 66.524 -28.375 64.25 C-27.346 61.819 -26.268 59.528 -25.062 57.188 C-23.108 53.353 -21.543 49.42 -20.027 45.395 C-19 43 -19 43 -17.516 40.559 C-15.908 37.845 -14.877 35.216 -13.812 32.25 C-11.483 26.027 -8.759 20.064 -5.855 14.089 C-4.158 10.573 -2.683 7.132 -1.445 3.426 C-0.73 1.73 -0.73 1.73 0 0 Z " fill="#FBFCFA" transform="translate(96,241)"></path>
<path d="M0 0 C0.746 -0.004 1.493 -0.008 2.262 -0.012 C9.917 0.002 9.917 0.002 13.5 1.125 C13.5 1.785 13.5 2.445 13.5 3.125 C14.824 3.81 16.159 4.474 17.5 5.125 C19.148 6.414 19.148 6.414 20.5 8.125 C20.645 10.246 20.645 10.246 20.312 12.562 C20.216 13.324 20.119 14.086 20.02 14.871 C19.064 19.017 18.095 20.728 14.5 23.125 C11.058 22.852 7.871 22.485 4.539 21.609 C-0.406 20.435 -5.261 20.136 -9.977 22.219 C-18.041 27.289 -21.513 33.353 -24.605 42.184 C-24.901 42.824 -25.196 43.465 -25.5 44.125 C-26.16 44.125 -26.82 44.125 -27.5 44.125 C-28.276 47.126 -28.908 50.085 -29.5 53.125 C-29.994 55.522 -30.495 57.918 -31 60.312 C-31.237 61.461 -31.474 62.61 -31.719 63.793 C-32.5 67.125 -32.5 67.125 -33.566 70.16 C-34.566 73.334 -34.803 76.057 -34.938 79.375 C-35.189 83.452 -35.607 86.915 -37 90.75 C-38.571 95.445 -38.87 99.905 -39.083 104.808 C-39.123 105.644 -39.163 106.48 -39.204 107.342 C-39.591 116.083 -39.664 124.818 -39.668 133.566 C-39.671 135.271 -39.675 136.975 -39.678 138.679 C-39.684 142.223 -39.686 145.766 -39.685 149.31 C-39.685 152.882 -39.692 156.455 -39.706 160.028 C-39.829 184.982 -39.829 184.982 -38.676 209.902 C-38.606 210.887 -38.537 211.871 -38.466 212.885 C-37.865 219.845 -36.322 226.392 -34.5 233.125 C-34 235.229 -33.5 237.333 -33 239.438 C-31.882 243.905 -30.44 247.935 -28.5 252.125 C-28.249 252.882 -27.997 253.638 -27.738 254.418 C-24.559 263.696 -18.151 271.406 -9.5 276.125 C-3.091 279.161 3.571 279.165 10.5 278.125 C14.759 276.034 18.129 273.449 21.5 270.125 C22.253 269.407 23.006 268.689 23.781 267.949 C26.28 263.844 25.973 260.336 25.812 255.625 C25.787 254.259 25.787 254.259 25.761 252.866 C25.698 249.951 25.601 247.039 25.5 244.125 C25.472 243.129 25.445 242.133 25.417 241.107 C25.334 238.196 25.235 235.286 25.125 232.375 C25.094 231.464 25.064 230.554 25.032 229.615 C24.931 227.447 24.726 225.284 24.5 223.125 C22.162 221.956 20.951 222.062 18.359 222.168 C17.536 222.189 16.712 222.211 15.863 222.232 C14.136 222.285 12.41 222.35 10.684 222.428 C5.103 222.545 1.879 221.958 -2.5 218.125 C-4.406 214.141 -5.072 210.514 -4.5 206.125 C-1.501 201.561 3.404 200.296 8.5 199.125 C12.925 198.711 17.309 198.705 21.75 198.75 C23.486 198.733 23.486 198.733 25.258 198.715 C26.374 198.719 27.49 198.723 28.641 198.727 C29.646 198.73 30.652 198.733 31.688 198.737 C34.964 199.189 36.853 200.169 39.5 202.125 C40.609 204.57 40.609 204.57 41.25 207.25 C41.843 210.472 41.843 210.472 43.5 213.125 C43.665 215.711 43.782 218.286 43.875 220.875 C44.232 228.873 45.163 236.695 46.396 244.603 C48.127 255.78 48.682 266.752 48.688 278.062 C48.7 279.363 48.712 280.663 48.725 282.002 C48.727 283.248 48.728 284.494 48.73 285.777 C48.735 286.901 48.739 288.025 48.743 289.183 C48.505 292.061 48.138 293.761 46.5 296.125 C45.84 296.125 45.18 296.125 44.5 296.125 C44.5 296.785 44.5 297.445 44.5 298.125 C36.732 298.795 36.732 298.795 33.062 295.812 C30.5 293.125 30.5 293.125 29.5 290.125 C26.997 290.142 26.997 290.142 24.5 291.125 C23.84 292.115 23.18 293.105 22.5 294.125 C19.891 295.477 19.891 295.477 16.75 296.75 C15.724 297.175 14.698 297.601 13.641 298.039 C3.535 301.533 -8.28 300.842 -18.5 298.125 C-21.889 296.151 -24.614 293.758 -27.5 291.125 C-28.428 290.589 -29.356 290.053 -30.312 289.5 C-40.613 283.025 -48.236 266.429 -51.5 255.125 C-51.756 253.402 -51.969 251.672 -52.125 249.938 C-52.249 248.679 -52.372 247.421 -52.5 246.125 C-53.16 246.125 -53.82 246.125 -54.5 246.125 C-54.844 243.922 -54.844 243.922 -55 240.875 C-55.488 233.587 -56.648 226.513 -58.039 219.348 C-59.186 213.384 -59.872 207.525 -60.254 201.461 C-60.248 199.167 -60.248 199.167 -61.5 198.125 C-61.606 195.701 -61.647 193.306 -61.645 190.881 C-61.649 190.121 -61.652 189.361 -61.655 188.578 C-61.665 186.042 -61.667 183.505 -61.668 180.969 C-61.671 179.192 -61.675 177.414 -61.678 175.637 C-61.684 171.888 -61.686 168.138 -61.685 164.389 C-61.685 160.589 -61.692 156.79 -61.706 152.99 C-61.895 100.186 -61.895 100.186 -57.289 79.832 C-56.136 74.416 -55.361 68.949 -54.59 63.467 C-54.017 59.596 -53.368 56.596 -51.5 53.125 C-51.186 50.762 -51.062 48.431 -50.941 46.051 C-50.796 45.415 -50.65 44.78 -50.5 44.125 C-49.015 43.63 -49.015 43.63 -47.5 43.125 C-47.264 41.207 -47.037 39.287 -46.855 37.363 C-46.241 33.495 -44.496 30.454 -42.5 27.125 C-41.825 25.984 -41.825 25.984 -41.137 24.82 C-34.101 13.891 -24.094 3.867 -11.281 0.551 C-7.508 -0.027 -3.812 -0.02 0 0 Z " fill="#0A0A0A" transform="translate(1638.5,160.875)"></path>
<path d="M0 0 C1.737 -0.029 3.474 -0.049 5.211 -0.066 C6.178 -0.079 7.145 -0.091 8.142 -0.104 C16.695 0.207 22.827 4.348 29 10 C30.38 11.628 31.736 13.28 33 15 C33.66 15.33 34.32 15.66 35 16 C35.309 17.114 35.619 18.227 35.938 19.375 C36.636 22.88 36.636 22.88 38.422 24.352 C44.79 31.003 46.168 45.488 48.125 54.125 C48.366 55.177 48.608 56.229 48.857 57.312 C52.727 74.982 54.503 92.298 54.312 110.375 C54.302 112.264 54.293 114.153 54.283 116.042 C54.023 149.406 54.023 149.406 50 161 C49.265 164.514 48.709 168.061 48.145 171.605 C47.832 173.417 47.425 175.212 47 177 C46.34 177 45.68 177 45 177 C44.516 179.074 44.044 181.151 43.621 183.238 C41.209 193.966 37.21 204.588 30 213 C29.526 213.825 29.051 214.65 28.562 215.5 C26.721 218.446 24.482 220.58 22 223 C21.165 224.145 21.165 224.145 20.312 225.312 C19.879 225.869 19.446 226.426 19 227 C18.34 227 17.68 227 17 227 C16.67 227.99 16.34 228.98 16 230 C14.68 230 13.36 230 12 230 C12 230.66 12 231.32 12 232 C9.562 232.688 9.562 232.688 7 233 C4.999 230.999 5.846 226.954 5.842 224.212 C5.835 222.984 5.835 222.984 5.827 221.732 C5.816 219.94 5.808 218.149 5.801 216.358 C5.789 213.482 5.769 210.607 5.748 207.732 C5.686 199.551 5.633 191.37 5.599 183.188 C5.486 157.637 4.587 132.409 2.185 106.971 C0.065 84.402 -0.255 62.028 -0.137 39.383 C-0.116 34.923 -0.108 30.464 -0.098 26.004 C-0.077 17.336 -0.043 8.668 0 0 Z " fill="#FAFBF9" transform="translate(1482,197)"></path>
<path d="M0 0 C1.758 -0.031 3.516 -0.052 5.273 -0.07 C6.252 -0.083 7.231 -0.096 8.24 -0.11 C15.249 0.169 21.646 4.715 27 9 C29.107 11.701 30.609 14.172 32.062 17.25 C33.008 19.346 33.008 19.346 36 21 C37.062 23.207 37.062 23.207 38 25.812 C38.977 28.504 39.889 30.83 41.457 33.234 C43.239 36.428 43.966 39.286 44.754 42.855 C44.9 43.511 45.046 44.166 45.196 44.841 C45.662 46.954 46.113 49.071 46.562 51.188 C46.718 51.905 46.873 52.622 47.033 53.362 C49.143 63.124 50.913 72.83 51.711 82.797 C51.893 85.813 51.893 85.813 52.509 87.931 C53.029 90.124 53.134 92.048 53.145 94.299 C53.152 95.142 53.158 95.984 53.165 96.852 C53.166 97.76 53.167 98.667 53.168 99.602 C53.173 101.027 53.173 101.027 53.178 102.482 C53.183 104.501 53.185 106.52 53.185 108.539 C53.187 111.565 53.206 114.591 53.225 117.617 C53.274 134.094 52.133 149.932 48.312 166 C48.055 167.102 47.797 168.203 47.532 169.338 C45.353 178.281 42.378 186.679 38.771 195.131 C37.273 198.763 36.061 202.5 34.824 206.227 C34.552 206.812 34.28 207.397 34 208 C33.34 208 32.68 208 32 208 C31.327 209.664 30.662 211.331 30 213 C24.323 221.538 18.682 228.912 9 233 C8.01 233 7.02 233 6 233 C5.68 230.407 5.584 228.044 5.599 225.442 C5.592 224.637 5.585 223.832 5.578 223.002 C5.558 220.307 5.559 217.613 5.559 214.918 C5.547 213.032 5.533 211.146 5.519 209.26 C5.482 204.255 5.462 199.249 5.447 194.244 C5.419 185.385 5.374 176.527 5.309 167.668 C5.302 166.708 5.295 165.749 5.288 164.76 C5.182 151.622 4.67 138.643 3.532 125.55 C2.434 112.762 2.012 99.916 1.471 87.094 C1.374 84.782 1.274 82.47 1.175 80.157 C0.035 53.429 -0.388 26.754 0 0 Z " fill="#FAFAF9" transform="translate(901,197)"></path>
<path d="M0 0 C0.765 -0.001 1.53 -0.002 2.318 -0.003 C3.928 -0.004 5.537 -0.002 7.147 0.002 C9.615 0.008 12.084 0.002 14.553 -0.004 C16.118 -0.003 17.684 -0.002 19.25 0 C19.99 -0.002 20.729 -0.004 21.491 -0.006 C26.696 0.018 26.696 0.018 28.926 1.133 C28.926 1.793 28.926 2.453 28.926 3.133 C29.524 3.401 30.122 3.669 30.738 3.945 C33.737 5.573 34.566 7.006 35.926 10.133 C36.658 14.492 36.459 17.268 34.113 21.07 C31.926 23.133 31.926 23.133 28.926 24.133 C28.596 24.793 28.266 25.453 27.926 26.133 C24.967 26.36 24.967 26.36 21.047 26.328 C20.017 26.324 20.017 26.324 18.966 26.32 C16.765 26.308 14.564 26.283 12.363 26.258 C10.874 26.248 9.385 26.239 7.896 26.23 C4.239 26.208 0.583 26.174 -3.074 26.133 C-3.003 27.347 -2.931 28.562 -2.858 29.813 C-1.873 48.211 -1.956 66.598 -2.006 85.016 C-2.016 89.328 -2.02 93.639 -2.025 97.951 C-2.036 106.345 -2.053 114.739 -2.074 123.133 C2.067 123.343 2.067 123.343 5.926 122.133 C8.026 121.984 10.133 121.911 12.238 121.883 C13.369 121.857 14.499 121.831 15.664 121.805 C19.244 122.165 21.072 122.987 23.926 125.133 C25.113 127.32 25.113 127.32 25.926 129.133 C26.586 129.133 27.246 129.133 27.926 129.133 C28.117 130.669 28.252 132.213 28.363 133.758 C28.444 134.616 28.526 135.475 28.609 136.359 C27.698 140.056 26.086 141.545 23.201 143.945 C19.527 145.863 16.254 145.173 12.232 144.759 C7.284 144.301 2.526 144.026 -2.074 146.133 C-6.522 152.858 -4.547 163.12 -4.102 170.73 C-4.036 173.24 -3.981 175.75 -3.936 178.259 C-3.803 184.207 -3.569 190.146 -3.285 196.088 C-2.937 203.512 -2.747 210.939 -2.553 218.369 C-2.187 231.63 -1.68 244.881 -1.074 258.133 C0.012 258.063 1.099 257.994 2.218 257.922 C3.664 257.831 5.11 257.739 6.556 257.648 C7.627 257.579 7.627 257.579 8.719 257.509 C14.475 257.146 20.22 256.887 25.988 256.82 C26.859 256.791 27.73 256.762 28.627 256.732 C35.478 256.665 39.823 258.13 44.863 263.008 C46.328 265.938 46.323 267.892 45.926 271.133 C44.188 275.696 41.434 277.263 37.254 279.336 C31.801 281.202 26.122 281.261 20.41 281.266 C19.714 281.267 19.017 281.268 18.3 281.269 C16.834 281.269 15.368 281.267 13.903 281.263 C11.696 281.258 9.489 281.263 7.281 281.27 C-15.968 281.287 -15.968 281.287 -21.832 275.703 C-24.555 272.261 -24.19 268.716 -24.172 264.521 C-24.17 263.84 -24.169 263.16 -24.168 262.459 C-24.164 260.955 -24.158 259.451 -24.15 257.948 C-24.136 255.458 -24.129 252.969 -24.124 250.48 C-24.116 246.787 -24.105 243.095 -24.092 239.403 C-24.059 229.129 -24.051 218.856 -24.047 208.582 C-24.046 206.905 -24.046 206.905 -24.046 205.194 C-24.04 174.234 -24.244 143.275 -24.463 112.317 C-24.501 106.869 -24.537 101.422 -24.572 95.975 C-24.614 89.265 -24.66 82.556 -24.711 75.847 C-24.737 72.379 -24.762 68.911 -24.783 65.443 C-24.807 61.643 -24.837 57.843 -24.869 54.044 C-24.875 52.932 -24.88 51.821 -24.886 50.675 C-24.937 45.387 -25.179 40.345 -26.074 35.133 C-26.278 32.299 -26.304 29.474 -26.324 26.633 C-26.355 25.552 -26.355 25.552 -26.387 24.449 C-26.433 18.03 -24.891 13.369 -20.77 8.297 C-19.921 7.459 -19.073 6.621 -18.199 5.758 C-16.935 4.478 -16.935 4.478 -15.645 3.172 C-10.984 -0.525 -5.739 -0.016 0 0 Z " fill="#0A0A0A" transform="translate(1021.07421875,171.8671875)"></path>
<path d="M0 0 C2.747 1.98 5.217 4.007 7.66 6.348 C8.78 7.347 8.78 7.347 9.922 8.367 C12.159 10.916 12.295 13.035 12.102 16.375 C11.298 19.965 9.654 21.352 6.66 23.348 C1.903 23.962 -0.384 23.765 -4.777 21.848 C-9.136 20.012 -12.7 19.061 -17.34 20.348 C-22.115 24.081 -24.773 28.944 -27.34 34.348 C-28 34.348 -28.66 34.348 -29.34 34.348 C-33.935 46.89 -33.99 63.32 -31.34 76.348 C-30.68 77.008 -30.02 77.668 -29.34 78.348 C-28.686 80.116 -28.686 80.116 -28.121 82.234 C-27.806 83.395 -27.806 83.395 -27.484 84.58 C-27.272 85.39 -27.059 86.2 -26.84 87.035 C-26.413 88.622 -25.986 90.21 -25.559 91.797 C-24.962 94.014 -24.37 96.23 -23.809 98.456 C-23.378 100.103 -22.866 101.728 -22.34 103.348 C-21.35 103.843 -21.35 103.843 -20.34 104.348 C-18.005 109.018 -16.802 113.381 -15.965 118.527 C-15.759 119.128 -15.552 119.729 -15.34 120.348 C-14.35 120.678 -13.36 121.008 -12.34 121.348 C-10.818 123.68 -9.469 125.966 -8.152 128.41 C-7.759 129.125 -7.366 129.839 -6.962 130.575 C-3.203 137.469 0.309 144.482 3.762 151.533 C4.584 153.195 5.432 154.844 6.281 156.492 C13.087 169.696 17.535 181.592 19.035 196.348 C19.195 197.801 19.356 199.255 19.516 200.708 C21.737 221.661 23.778 247.662 14.66 267.348 C14 267.678 13.34 268.008 12.66 268.348 C11.789 270.409 11.13 272.504 10.441 274.633 C10.184 275.199 9.926 275.765 9.66 276.348 C9 276.348 8.34 276.348 7.66 276.348 C6.953 277.66 6.295 278.999 5.66 280.348 C-0.625 289.691 -8.161 296.512 -19.402 299.035 C-35.748 300.332 -35.748 300.332 -42.34 297.348 C-43.98 297.007 -43.98 297.007 -45.652 296.66 C-51.569 294.554 -55.876 290.544 -59.34 285.348 C-60.181 280.617 -59.983 277.303 -57.277 273.285 C-53.514 270.803 -51.795 270.754 -47.34 271.348 C-42.853 272.547 -38.353 273.974 -34.34 276.348 C-34.34 277.008 -34.34 277.668 -34.34 278.348 C-27.421 278.595 -21.278 278.307 -15.34 274.348 C-14.624 272.365 -13.963 270.362 -13.34 268.348 C-12.406 266.564 -11.447 264.793 -10.465 263.035 C-0.855 243.675 -0.905 220.166 -5.34 199.348 C-5.593 197.955 -5.842 196.562 -6.086 195.168 C-6.314 193.949 -6.542 192.729 -6.777 191.473 C-7.003 190.238 -7.229 189.003 -7.461 187.73 C-8.332 184.376 -9.497 182.247 -11.34 179.348 C-12.259 177.178 -13.132 174.989 -13.965 172.785 C-14.39 171.67 -14.816 170.555 -15.254 169.406 C-16.34 166.348 -16.34 166.348 -16.863 163.945 C-17.099 163.154 -17.099 163.154 -17.34 162.348 C-18 162.348 -18.66 162.348 -19.34 162.348 C-20.371 160.028 -21.369 157.693 -22.34 155.348 C-23.33 154.358 -23.33 154.358 -24.34 153.348 C-25.068 151.692 -25.792 150.034 -26.477 148.359 C-27.698 145.514 -29.132 142.788 -30.57 140.047 C-31.34 138.348 -31.34 138.348 -31.34 136.348 C-32 136.348 -32.66 136.348 -33.34 136.348 C-34.129 134.723 -34.129 134.723 -34.965 132.348 C-36.78 127.529 -38.98 123.037 -41.34 118.473 C-46.747 107.874 -51.34 96.412 -51.34 84.348 C-52 84.348 -52.66 84.348 -53.34 84.348 C-55.611 76.881 -55.609 69.664 -55.527 61.91 C-55.527 60.747 -55.526 59.583 -55.525 58.385 C-55.434 40.253 -55.434 40.253 -52.402 32.223 C-52.063 31.292 -51.724 30.361 -51.375 29.402 C-51.033 28.724 -50.692 28.046 -50.34 27.348 C-49.68 27.348 -49.02 27.348 -48.34 27.348 C-47.715 25.407 -47.715 25.407 -47.34 23.035 C-46.74 19.711 -46.275 18.25 -44.34 15.348 C-43.68 15.348 -43.02 15.348 -42.34 15.348 C-42.01 14.688 -41.68 14.028 -41.34 13.348 C-41.01 12.688 -40.68 12.028 -40.34 11.348 C-39.68 11.348 -39.02 11.348 -38.34 11.348 C-37.911 10.452 -37.911 10.452 -37.473 9.539 C-35.369 5.469 -31.203 3.59 -27.34 1.348 C-26.743 1.001 -26.146 0.654 -25.531 0.297 C-18.03 -3.228 -7.441 -3.682 0 0 Z " fill="#090909" transform="translate(755.33984375,161.65234375)"></path>
<path d="M0 0 C0.66 0 1.32 0 2 0 C5.176 8.968 5.182 18.149 5.188 27.562 C5.2 28.66 5.212 29.758 5.225 30.889 C5.254 47.389 -2.601 60.986 -13.723 72.922 C-25.777 84.977 -39.637 88.227 -56 91 C-55.34 91.619 -54.68 92.238 -54 92.875 C-52 95 -52 95 -52 97 C-70.237 103.117 -94.928 99.631 -111.836 91.219 C-114.663 89.595 -117.329 87.865 -120 86 C-121.373 85.204 -122.748 84.412 -124.125 83.625 C-129.13 80.433 -134.332 76.682 -138 72 C-137.34 70.043 -137.34 70.043 -136 68 C-135.596 66.303 -135.243 64.593 -134.938 62.875 C-134.097 58.194 -134.097 58.194 -133 56 C-132.34 56 -131.68 56 -131 56 C-131 55.34 -131 54.68 -131 54 C-127.373 52.163 -123.945 51.639 -119.938 51.188 C-104.949 48.988 -94.033 41.202 -83.324 30.918 C-80.94 28.951 -78.876 28.06 -76 27 C-75.402 26.381 -74.804 25.762 -74.188 25.125 C-69.034 20.118 -62.203 18.209 -55.312 16.812 C-54.501 16.641 -53.689 16.469 -52.853 16.292 C-46.589 15.07 -40.494 14.744 -34.125 14.625 C-25.046 14.428 -18.895 12.699 -11 8 C-9.911 7.433 -9.911 7.433 -8.801 6.855 C-5.293 5.01 -2.735 2.836 0 0 Z " fill="#0A0A0A" transform="translate(1221,257)"></path>
<path d="M0 0 C0.697 0.005 1.395 0.009 2.113 0.014 C3.826 0.025 5.538 0.043 7.25 0.062 C7.25 0.722 7.25 1.382 7.25 2.062 C7.972 2.351 8.694 2.64 9.438 2.938 C13.295 4.48 16.165 6.513 18.562 9.938 C19.689 13.419 19.904 16.755 18.25 20.062 C17.59 20.062 16.93 20.062 16.25 20.062 C15.941 20.681 15.631 21.3 15.312 21.938 C14.25 24.062 14.25 24.062 11.25 26.062 C8.636 26.234 6.131 26.295 3.52 26.258 C2.769 26.255 2.019 26.252 1.246 26.249 C-1.149 26.238 -3.543 26.213 -5.938 26.188 C-7.562 26.177 -9.186 26.168 -10.811 26.16 C-14.791 26.138 -18.77 26.104 -22.75 26.062 C-22.613 27.348 -22.476 28.634 -22.334 29.959 C-20.493 48.631 -20.318 67.268 -20.149 86.014 C-20.108 90.319 -20.058 94.624 -20.008 98.93 C-19.912 107.307 -19.828 115.685 -19.75 124.062 C-17.89 123.821 -17.89 123.821 -15.993 123.575 C-12.01 123.059 -8.082 122.862 -4.062 122.812 C-2.801 122.787 -1.539 122.761 -0.238 122.734 C3.757 123.11 6.395 124.208 9.25 127.062 C9.482 129.305 9.61 131.559 9.688 133.812 C9.778 135.661 9.778 135.661 9.871 137.547 C9.203 141.328 8.265 142.906 5.133 145.155 C1.62 146.848 -1.91 146.806 -5.75 146.812 C-7.313 146.846 -8.875 146.882 -10.438 146.922 C-11.122 146.927 -11.806 146.932 -12.512 146.937 C-13.25 146.978 -13.989 147.02 -14.75 147.062 C-16.286 147.001 -16.286 147.001 -17.852 146.939 C-18.808 147.31 -19.765 147.68 -20.75 148.062 C-21.713 151.379 -21.454 154.74 -21.355 158.166 C-21.348 159.228 -21.341 160.289 -21.333 161.383 C-21.302 164.913 -21.227 168.44 -21.152 171.969 C-21.121 174.409 -21.093 176.849 -21.067 179.289 C-20.99 185.727 -20.877 192.164 -20.757 198.601 C-20.665 203.866 -20.599 209.131 -20.534 214.397 C-20.457 220.65 -20.369 226.903 -20.277 233.156 C-20.26 234.359 -20.242 235.562 -20.224 236.801 C-20.172 240.187 -20.113 243.573 -20.051 246.959 C-20.028 248.48 -20.028 248.48 -20.005 250.032 C-19.986 250.949 -19.968 251.866 -19.949 252.811 C-19.927 254.013 -19.927 254.013 -19.905 255.24 C-19.946 257.082 -19.946 257.082 -18.75 258.062 C-13.533 258.379 -8.309 258.204 -3.125 257.562 C5.89 256.456 14.599 256.441 22.688 261 C25.25 263.062 25.25 263.062 27.25 266.062 C27.922 273.117 27.922 273.117 25.562 276.438 C20.635 279.9 16.097 280.38 10.25 281.062 C9.92 281.392 9.59 281.723 9.25 282.062 C3.517 282.356 -2.218 282.377 -7.958 282.413 C-9.892 282.429 -11.826 282.456 -13.76 282.495 C-16.551 282.55 -19.341 282.571 -22.133 282.586 C-22.99 282.609 -23.848 282.631 -24.731 282.655 C-30.689 282.634 -34.464 281.286 -38.75 277.062 C-40.773 274.028 -41.001 273.46 -41.009 270.061 C-41.016 269.245 -41.023 268.429 -41.03 267.588 C-41.027 266.692 -41.024 265.795 -41.022 264.872 C-41.027 263.92 -41.032 262.967 -41.037 261.986 C-41.052 258.78 -41.052 255.574 -41.053 252.368 C-41.061 250.076 -41.069 247.783 -41.079 245.49 C-41.097 240.545 -41.109 235.599 -41.116 230.654 C-41.128 222.834 -41.153 215.014 -41.18 207.195 C-41.217 196.23 -41.248 185.265 -41.273 174.3 C-41.275 173.604 -41.276 172.908 -41.278 172.191 C-41.28 171.494 -41.281 170.797 -41.283 170.079 C-41.306 160.212 -41.33 150.344 -41.357 140.477 C-41.359 139.783 -41.361 139.09 -41.363 138.375 C-41.395 126.799 -41.43 115.223 -41.468 103.647 C-41.493 95.874 -41.513 88.101 -41.528 80.329 C-41.538 75.489 -41.552 70.65 -41.567 65.81 C-41.573 63.567 -41.578 61.325 -41.58 59.082 C-41.584 56.017 -41.594 52.952 -41.605 49.888 C-41.605 49.003 -41.604 48.118 -41.604 47.206 C-41.132 38.571 -41.132 38.571 -43.75 31.062 C-44.519 21.772 -44.358 14.537 -38.254 7.285 C-34.514 3.322 -31.771 1.995 -26.441 1.781 C-25.612 1.744 -24.782 1.706 -23.928 1.668 C-23.065 1.633 -22.202 1.598 -21.312 1.562 C-19.605 1.493 -17.898 1.421 -16.191 1.344 C-15.435 1.313 -14.679 1.283 -13.901 1.252 C-9.174 0.836 -4.829 -0.059 0 0 Z " fill="#060606" transform="translate(1753.75,170.9375)"></path>
<path d="M0 0 C1.534 -0.044 1.534 -0.044 3.1 -0.088 C10.437 -0.15 10.437 -0.15 13.855 1.957 C15.531 4.92 15.721 6.916 15.688 10.312 C15.698 11.344 15.708 12.375 15.719 13.438 C15.188 16.312 15.188 16.312 13.664 18.648 C10.247 20.945 7.048 20.909 3.062 20.938 C-2.369 20.71 -2.369 20.71 -6.812 23.312 C-8.633 34.708 -7.816 46.637 -7.516 58.121 C-7.437 61.137 -7.37 64.153 -7.305 67.17 C-7.258 69.12 -7.212 71.07 -7.164 73.02 C-7.144 73.905 -7.124 74.791 -7.104 75.703 C-6.99 79.885 -6.771 84.012 -6.322 88.171 C-5.691 94.06 -5.501 99.946 -5.312 105.863 C-5.272 107.039 -5.231 108.215 -5.189 109.426 C-5.061 113.159 -4.936 116.892 -4.812 120.625 C-4.689 124.347 -4.564 128.069 -4.436 131.792 C-4.356 134.098 -4.279 136.404 -4.205 138.711 C-3.984 152.135 -3.984 152.135 -1.812 165.312 C-1.592 167.891 -1.416 170.452 -1.285 173.035 C-1.244 173.818 -1.203 174.601 -1.16 175.408 C-0.627 186.182 -0.448 196.966 -0.25 207.75 C-0.229 208.845 -0.208 209.941 -0.186 211.069 C0.131 227.485 0.342 243.893 0.188 260.312 C1.273 260.266 2.358 260.22 3.477 260.172 C4.922 260.134 6.367 260.098 7.812 260.062 C8.525 260.029 9.238 259.995 9.973 259.961 C16.118 259.848 19.54 261.842 24.062 266.062 C25.76 269.457 25.958 272.656 25.188 276.312 C22.054 280.552 19.216 282.048 14.188 283.312 C10.344 283.632 6.511 283.664 2.656 283.684 C1.547 283.693 0.438 283.702 -0.705 283.711 C-3.045 283.725 -5.385 283.734 -7.725 283.738 C-11.3 283.75 -14.874 283.799 -18.449 283.85 C-20.727 283.859 -23.004 283.866 -25.281 283.871 C-26.347 283.891 -27.413 283.91 -28.511 283.93 C-36.783 283.88 -36.783 283.88 -40.479 280.895 C-43.63 277.408 -43.63 277.408 -43.812 274.312 C-43.916 273.158 -44.019 272.002 -44.125 270.812 C-43.812 267.312 -43.812 267.312 -41.938 264.875 C-39.812 263.312 -39.812 263.312 -37.812 263.312 C-37.812 262.652 -37.812 261.993 -37.812 261.312 C-31.872 261.312 -25.933 261.312 -19.812 261.312 C-19.899 251.235 -19.993 241.157 -20.1 231.08 C-20.149 226.397 -20.196 221.715 -20.234 217.032 C-20.057 181.529 -20.057 181.529 -23.812 146.312 C-26.652 119.248 -26.748 91.65 -25.171 64.5 C-24.445 51.127 -24.73 37.7 -24.812 24.312 C-25.986 24.797 -25.986 24.797 -27.184 25.292 C-30.824 26.705 -33.963 26.952 -37.812 26.312 C-41.252 24.219 -43.593 22.193 -44.812 18.312 C-45.37 13.932 -45.383 12.068 -42.688 8.5 C-38.153 5.05 -32.987 4.03 -27.5 2.75 C-26.452 2.501 -25.404 2.252 -24.324 1.996 C-16.245 0.423 -8.218 0.079 0 0 Z " fill="#080808" transform="translate(837.8125,167.6875)"></path>
<path d="M0 0 C0.33 0 0.66 0 1 0 C1.215 2.654 1.359 5.286 1.465 7.945 C1.502 8.796 1.54 9.647 1.579 10.524 C1.704 13.391 1.821 16.258 1.938 19.125 C2.023 21.155 2.109 23.184 2.195 25.214 C2.425 30.682 2.646 36.15 2.865 41.618 C2.999 44.965 3.134 48.311 3.271 51.658 C4.359 78.573 5.249 105.48 5.658 132.415 C5.675 133.379 5.691 134.343 5.708 135.337 C5.738 137.131 5.764 138.926 5.785 140.72 C5.843 144.051 5.94 146.819 7 150 C7.09 151.331 7.127 152.666 7.129 153.999 C7.132 154.815 7.135 155.631 7.138 156.472 C7.137 157.369 7.135 158.265 7.134 159.189 C7.136 160.142 7.138 161.095 7.141 162.078 C7.147 165.289 7.146 168.5 7.145 171.711 C7.148 174.01 7.152 176.308 7.155 178.607 C7.164 184.882 7.167 191.156 7.167 197.43 C7.168 201.376 7.17 205.322 7.173 209.267 C7.182 222.398 7.186 235.528 7.185 248.659 C7.185 249.367 7.185 250.076 7.185 250.806 C7.185 251.516 7.185 252.225 7.185 252.956 C7.185 264.301 7.194 275.645 7.208 286.989 C7.223 298.725 7.23 310.46 7.229 322.196 C7.229 328.748 7.231 335.299 7.242 341.851 C7.294 375.505 6.638 409.061 5.337 442.687 C4.796 456.933 4.593 471.182 4.438 485.438 C4.261 500.311 4.05 515.177 3.535 530.043 C3.498 531.157 3.46 532.27 3.421 533.418 C2.413 560.575 2.413 560.575 0 572 C-0.33 572 -0.66 572 -1 572 C-1.233 569.264 -1.396 566.551 -1.518 563.809 C-1.559 562.953 -1.6 562.097 -1.642 561.215 C-2.053 552.428 -2.353 543.637 -2.631 534.845 C-2.722 531.975 -2.815 529.106 -2.909 526.237 C-3.176 518.095 -3.438 509.953 -3.698 501.811 C-3.858 496.79 -4.022 491.769 -4.188 486.748 C-4.249 484.854 -4.31 482.959 -4.369 481.065 C-4.668 469.762 -4.668 469.762 -5.511 458.492 C-6.365 450.112 -6.361 441.669 -6.535 433.254 C-6.579 431.255 -6.622 429.256 -6.666 427.257 C-6.806 420.692 -6.935 414.127 -7.062 407.562 C-7.085 406.437 -7.107 405.312 -7.13 404.153 C-7.877 366.174 -8.195 328.203 -8.188 290.217 C-8.188 286.474 -8.189 282.73 -8.19 278.987 C-8.193 255.646 -8.144 232.331 -7.247 209.005 C-6.96 201.388 -6.828 193.77 -6.719 186.148 C-6.7 184.844 -6.681 183.54 -6.661 182.196 C-6.596 177.589 -6.534 172.983 -6.474 168.376 C-6.11 140.469 -6.11 140.469 -5.396 127.035 C-4.796 115.582 -4.517 104.118 -4.184 92.655 C-3.976 85.52 -3.758 78.385 -3.539 71.25 C-3.517 70.53 -3.495 69.81 -3.472 69.069 C-3.041 55.044 -2.577 41.021 -2.065 26.999 C-1.98 24.671 -1.897 22.343 -1.816 20.015 C-1.704 16.812 -1.585 13.609 -1.465 10.406 C-1.433 9.458 -1.4 8.511 -1.367 7.534 C-1.115 1.115 -1.115 1.115 0 0 Z " fill="#0F0F0F" transform="translate(658,28)"></path>
<path d="M0 0 C10.143 -0.118 16.549 4.255 24 11 C27.197 15.039 29.079 19.238 31 24 C31.481 25.044 31.962 26.088 32.457 27.164 C34.237 31.31 35.196 35.535 36.125 39.938 C36.378 41.077 36.378 41.077 36.637 42.24 C40.917 61.974 42.588 87.771 31.652 105.605 C26.167 113.555 20.752 117.805 12 122 C11.01 122.495 11.01 122.495 10 123 C6.75 123.9 4.148 124.394 1 123 C-0.541 118.483 -0.182 113.763 -0.098 109.043 C-0.103 107.566 -0.113 106.09 -0.126 104.613 C-0.152 100.629 -0.122 96.648 -0.082 92.664 C-0.05 88.555 -0.068 84.447 -0.082 80.338 C-0.1 72.907 -0.075 65.477 -0.033 58.046 C0.009 50.318 -0.006 42.591 -0.031 34.863 C-0.064 23.242 -0.052 11.621 0 0 Z " fill="#F8F9F8" transform="translate(1267,309)"></path>
<path d="M0 0 C0.66 0 1.32 0 2 0 C3.189 3.566 3.427 7.018 3.719 10.738 C3.782 11.497 3.844 12.255 3.909 13.036 C4.11 15.462 4.305 17.887 4.5 20.312 C4.695 22.727 4.892 25.142 5.091 27.556 C5.215 29.058 5.336 30.559 5.455 32.061 C5.786 36.087 6.331 40.019 7 44 C7.093 45.493 7.153 46.989 7.176 48.484 C7.468 59.997 8.646 71.055 10.551 82.411 C11.964 91.066 12.58 99.586 12.824 108.344 C12.745 111.827 12.745 111.827 14 114 C14.857 121.398 15.107 128.869 15.188 136.312 C15.202 137.567 15.216 138.821 15.23 140.113 C15.154 141.066 15.078 142.019 15 143 C6.057 147.471 -10.934 143.873 -20 141 C-20.99 140.34 -21.98 139.68 -23 139 C-23.423 133.417 -22.692 128.281 -21.625 122.812 C-21.348 121.314 -21.072 119.815 -20.797 118.316 C-20.661 117.584 -20.525 116.852 -20.385 116.098 C-19.102 109.103 -18.029 102.165 -17.625 95.062 C-17.202 88.705 -16.136 82.512 -15 76.25 C-14.822 75.26 -14.643 74.27 -14.459 73.25 C-13.131 66.131 -13.131 66.131 -12 65 C-11.628 62.84 -11.302 60.671 -11 58.5 C-10.111 52.111 -10.111 52.111 -9 51 C-8.773 49.455 -8.603 47.902 -8.457 46.348 C-7.252 34.541 -5.596 23.014 -2.938 11.438 C-2.68 10.296 -2.423 9.155 -2.157 7.979 C-0.732 1.996 -0.732 1.996 0 0 Z " fill="#F5F6F4" transform="translate(1397,226)"></path>
<path d="M0 0 C5.532 -0.118 9.354 2.487 13.312 6.125 C14.199 7.074 15.086 8.023 16 9 C16.668 9.686 17.335 10.372 18.023 11.078 C18.738 11.836 19.452 12.594 20.188 13.375 C20.862 14.084 21.536 14.793 22.23 15.523 C27.324 22.652 26.235 31.048 26.125 39.438 C26.116 40.741 26.107 42.045 26.098 43.389 C26.074 46.593 26.041 49.796 26 53 C25.34 53 24.68 53 24 53 C24 55.31 24 57.62 24 60 C23.34 60 22.68 60 22 60 C21.409 62.037 21.409 62.037 21.062 64.562 C20.239 69.121 19.144 72.89 17 77 C16.34 77 15.68 77 15 77 C14.299 78.652 13.64 80.323 13 82 C11.897 83.921 10.749 85.817 9.562 87.688 C8.966 88.64 8.369 89.593 7.754 90.574 C6 93 6 93 3 95 C1.68 95 0.36 95 -1 95 C-1.53 93.243 -1.53 93.243 -1.574 90.801 C-1.602 89.921 -1.63 89.041 -1.658 88.135 C-1.668 87.203 -1.678 86.272 -1.688 85.312 C-1.73 83.496 -1.775 81.68 -1.824 79.863 C-1.835 79.052 -1.847 78.24 -1.858 77.404 C-2.009 74.854 -2.488 72.5 -3 70 C-4.376 58.039 -4.253 45.933 -4.295 33.911 C-4.307 31.623 -4.327 29.334 -4.357 27.046 C-4.399 23.707 -4.416 20.37 -4.426 17.031 C-4.443 16.012 -4.461 14.994 -4.479 13.944 C-4.461 8.049 -4.101 4.401 0 0 Z " fill="#F2F3F1" transform="translate(1269,191)"></path>
<path d="M0 0 C2.25 -0.438 2.25 -0.438 5 0 C6.988 1.612 8.376 3.054 10 5 C10.656 5.752 11.312 6.503 11.988 7.277 C25.037 22.759 22.84 42.877 21.398 62.055 C19.879 77.098 13.546 87.454 3 98 C0.375 98.125 0.375 98.125 -2 98 C-1.893 85.518 -1.78 73.035 -1.661 60.553 C-1.605 54.758 -1.552 48.962 -1.503 43.167 C-1.455 37.577 -1.403 31.988 -1.347 26.399 C-1.327 24.263 -1.308 22.127 -1.291 19.99 C-1.267 17.007 -1.237 14.023 -1.205 11.04 C-1.2 10.149 -1.194 9.259 -1.188 8.341 C-1.114 2.228 -1.114 2.228 0 0 Z " fill="#F4F6F4" transform="translate(1829,186)"></path>
<path d="M0 0 C8.862 0.219 16.323 3.61 22.928 9.594 C24.635 11.5 26.147 13.45 27.643 15.523 C28.406 16.348 29.169 17.173 29.955 18.023 C34.251 24.387 34.67 33.071 33.643 40.523 C31.762 43.055 30.705 43.503 27.643 44.523 C21.392 45.092 21.392 45.092 18.51 42.906 C16.208 39.968 15.819 37.749 15.205 34.086 C14.081 28.513 13.071 25.994 8.643 22.523 C8.643 21.863 8.643 21.203 8.643 20.523 C3.905 18.826 -1.433 18.772 -6.357 19.523 C-10.379 21.777 -12.825 24.725 -15.357 28.523 C-15.751 30.135 -16.079 31.763 -16.357 33.398 C-17.661 40.33 -17.661 40.33 -19.357 43.523 C-22.866 45.863 -24.228 45.936 -28.357 45.523 C-32.156 43.797 -33.822 42.365 -35.357 38.523 C-36.084 32.718 -35.843 28.351 -32.357 23.523 C-31.986 22.162 -31.986 22.162 -31.607 20.773 C-29.24 14.618 -24.043 7.231 -17.912 4.391 C-17.028 4.063 -16.143 3.736 -15.232 3.398 C-9.683 1.324 -6.091 0.066 0 0 Z " fill="#F6F8F6" transform="translate(430.357177734375,257.4765625)"></path>
<path d="M0 0 C1.208 0.94 1.208 0.94 2.441 1.898 C3.134 2.401 3.826 2.904 4.539 3.422 C11.152 8.954 12.76 17.417 13.785 25.664 C13.91 28.805 13.609 31.451 12.504 34.398 C9.214 36.791 5.459 37.432 1.441 36.898 C-1.951 34.883 -3.314 33.663 -4.527 29.875 C-4.703 28.769 -4.878 27.663 -5.059 26.523 C-6.199 20.816 -7.182 17.754 -11.559 13.898 C-15.962 11.131 -21.52 11.077 -26.559 11.898 C-29.581 14.003 -29.581 14.003 -31.559 16.898 C-32.077 17.515 -32.595 18.131 -33.129 18.766 C-34.755 21.191 -35.098 22.9 -35.496 25.773 C-36.318 30.451 -37.552 33.235 -40.559 36.898 C-43.697 38.468 -46.097 38.25 -49.559 37.898 C-52.496 36.148 -52.496 36.148 -54.559 32.898 C-56.13 22.603 -53.556 14.506 -47.809 6.086 C-44.537 1.854 -41.674 -1.312 -36.559 -3.102 C-35.464 -3.492 -34.37 -3.883 -33.242 -4.285 C-20.842 -8.164 -10.828 -7.723 0 0 Z " fill="#F7F9F7" transform="translate(214.55859375,265.1015625)"></path>
<path d="M0 0 C0.66 0 1.32 0 2 0 C3.035 17.157 2.176 32.561 -9.402 46.301 C-10.193 47.142 -10.193 47.142 -11 48 C-11.641 48.695 -12.281 49.39 -12.941 50.105 C-16.664 53.983 -20.325 57.329 -25 60 C-25.66 60 -26.32 60 -27 60 C-27.774 51.096 -23.964 44.186 -19 37 C-21.23 37.79 -23.459 38.582 -25.688 39.375 C-26.929 39.816 -28.17 40.257 -29.449 40.711 C-31.558 41.476 -33.654 42.278 -35.719 43.156 C-38.85 44.314 -41.695 44.13 -45 44 C-44.489 39.497 -42.825 37.125 -39.938 33.688 C-39.204 32.804 -38.471 31.921 -37.715 31.012 C-36.866 30.016 -36.866 30.016 -36 29 C-37.072 29.33 -38.145 29.66 -39.25 30 C-43 31 -43 31 -47 31 C-46.017 24.117 -43.457 21.366 -38 17 C-44.6 17 -51.2 17 -58 17 C-54.767 12.15 -50.583 11.218 -45 10 C-40.176 9.552 -35.344 9.406 -30.501 9.328 C-24.261 9.21 -17.978 8.967 -12 7 C-11.67 6.34 -11.34 5.68 -11 5 C-9.004 4.219 -9.004 4.219 -6.562 3.5 C-2.906 2.427 -2.906 2.427 0 0 Z " fill="#F3F5F3" transform="translate(1216,271)"></path>
<path d="M0 0 C0.33 0 0.66 0 1 0 C1.025 4.626 1.043 9.253 1.055 13.879 C1.06 15.453 1.067 17.026 1.075 18.599 C1.088 20.863 1.093 23.127 1.098 25.391 C1.103 26.092 1.108 26.793 1.113 27.515 C1.114 34.256 1.114 34.256 0 37 C-0.66 37 -1.32 37 -2 37 C-4.149 26.07 -3.102 14.086 -3 3 C-2.67 3 -2.34 3 -2 3 C-1.76 5.161 -1.584 7.33 -1.438 9.5 C-1.354 10.707 -1.27 11.913 -1.184 13.156 C-1.123 14.095 -1.062 15.033 -1 16 C-0.939 14.845 -0.879 13.69 -0.816 12.5 C-0.732 11 -0.647 9.5 -0.562 8 C-0.504 6.855 -0.504 6.855 -0.443 5.688 C-0.333 3.789 -0.171 1.894 0 0 Z " fill="#9BA19E" transform="translate(659,578)"></path>
<path d="M0 0 C2.915 1.074 4.778 1.778 7 4 C7.99 4 8.98 4 10 4 C10 3.01 10 2.02 10 1 C10.835 2.052 10.835 2.052 11.688 3.125 C12.899 4.631 14.116 6.134 15.379 7.598 C19 11.796 19 11.796 19 14 C14.68 12.523 11.444 10.31 7.812 7.562 C6.767 6.78 5.722 5.998 4.645 5.191 C2 3 2 3 0 0 Z " fill="#CFD9D4" transform="translate(256,510)"></path>
<path d="M0 0 C0.66 0.33 1.32 0.66 2 1 C-1.227 4.986 -5.723 6.631 -10.646 7.428 C-13.637 7.741 -16.625 7.98 -19.625 8.188 C-20.649 8.269 -21.672 8.351 -22.727 8.436 C-25.484 8.649 -28.238 8.854 -31 9 C-32.37 9.103 -32.37 9.103 -33.767 9.208 C-34.504 9.14 -35.241 9.071 -36 9 C-36.33 8.01 -36.66 7.02 -37 6 C-37.66 5.34 -38.32 4.68 -39 4 C-35.877 4.486 -33.004 4.999 -30 6 C-19.439 6.451 -10.264 6.423 -1 1 C-0.67 0.67 -0.34 0.34 0 0 Z " fill="#A3ACA8" transform="translate(748,454)"></path>
<path d="M0 0 C0.99 0.33 1.98 0.66 3 1 C2.01 1 1.02 1 0 1 C0 0.67 0 0.34 0 0 Z M4 3 C6.31 4.98 8.62 6.96 11 9 C8 9 8 9 5.812 7.125 C4 5 4 5 4 3 Z M11 10 C15.475 12.03 18.385 15.054 21.812 18.5 C22.423 19.094 23.033 19.689 23.662 20.301 C25.17 21.807 26.594 23.398 28 25 C27.67 25.66 27.34 26.32 27 27 C15.294 16.811 15.294 16.811 11 10 Z M30 29 C30.99 29.99 31.98 30.98 33 32 C32.01 31.67 31.02 31.34 30 31 C30 30.34 30 29.68 30 29 Z " fill="#C9D4CF" transform="translate(109,373)"></path>
<path d="M0 0 C0.66 0.33 1.32 0.66 2 1 C0.02 1.99 0.02 1.99 -2 3 C-1.34 3.66 -0.68 4.32 0 5 C-1.65 5.33 -3.3 5.66 -5 6 C-5 5.34 -5 4.68 -5 4 C-5.554 4.161 -6.109 4.322 -6.68 4.488 C-14.439 6.199 -22.396 4.847 -30 3 C-26.027 1.836 -23.104 2.395 -19 3 C-13.25 3.366 -8.512 2.874 -3 1 C-2.01 0.67 -1.02 0.34 0 0 Z " fill="#8D9591" transform="translate(1653,457)"></path>
<path d="M0 0 C0.66 0.33 1.32 0.66 2 1 C-0.28 3.2 -2.576 5.383 -4.875 7.562 C-5.526 8.191 -6.177 8.819 -6.848 9.467 C-7.473 10.057 -8.098 10.646 -8.742 11.254 C-9.318 11.804 -9.894 12.354 -10.488 12.92 C-10.987 13.277 -11.486 13.633 -12 14 C-12.66 13.67 -13.32 13.34 -14 13 C-12.232 11.205 -10.461 9.414 -8.688 7.625 C-8.188 7.117 -7.688 6.609 -7.174 6.086 C-4.875 3.771 -2.725 1.817 0 0 Z M-22 20 C-20 21 -20 21 -20 21 Z " fill="#C1CDC7" transform="translate(417,528)"></path>
<path d="M0 0 C0.99 0.33 1.98 0.66 3 1 C1.036 2.964 -0.929 4.928 -2.898 6.887 C-4.128 8.123 -5.347 9.371 -6.539 10.645 C-7.639 11.816 -8.814 12.916 -10 14 C-10.99 14 -11.98 14 -13 14 C-12.145 13.157 -11.291 12.314 -10.41 11.445 C-9.294 10.339 -8.178 9.232 -7.062 8.125 C-6.499 7.569 -5.935 7.014 -5.354 6.441 C-2.301 3.508 -2.301 3.508 0 0 Z " fill="#CBD5D0" transform="translate(455,425)"></path>
<path d="M0 0 C0.33 0.66 0.66 1.32 1 2 C3.716 1.766 6.316 1.436 9 1 C10.333 0.81 11.666 0.623 13 0.438 C14.485 0.221 14.485 0.221 16 0 C13.6 2.872 11.712 3.545 8.062 4.188 C7.208 4.346 6.353 4.505 5.473 4.668 C3 5 3 5 -1 5 C-0.67 3.35 -0.34 1.7 0 0 Z " fill="#989F9C" transform="translate(1170,297)"></path>
<path d="M0 0 C0.66 0 1.32 0 2 0 C2.961 2.882 3.106 4.699 3.062 7.688 C3.053 8.496 3.044 9.304 3.035 10.137 C3.024 10.752 3.012 11.366 3 12 C2.01 11.34 1.02 10.68 0 10 C-0.66 10.66 -1.32 11.32 -2 12 C-1.72 9.998 -1.426 7.999 -1.125 6 C-0.963 4.886 -0.8 3.773 -0.633 2.625 C-0.424 1.759 -0.215 0.893 0 0 Z " fill="#BAC2BE" transform="translate(1397,226)"></path>
<path d="M0 0 C0.66 0.33 1.32 0.66 2 1 C0.601 2.393 -0.82 3.764 -2.25 5.125 C-3.433 6.274 -3.433 6.274 -4.641 7.445 C-5.419 7.958 -6.198 8.471 -7 9 C-9.297 8.367 -9.297 8.367 -11 7 C-11 6.34 -11 5.68 -11 5 C-9.333 4.667 -7.667 4.333 -6 4 C-2.792 2.287 -2.792 2.287 0 0 Z " fill="#D6DFDA" transform="translate(437,443)"></path>
<path d="M0 0 C0.99 0.33 1.98 0.66 3 1 C3.341 3.133 3.341 3.133 3.293 5.91 C3.283 6.9 3.274 7.889 3.264 8.908 C3.239 9.949 3.213 10.99 3.188 12.062 C3.167 13.63 3.167 13.63 3.146 15.229 C3.111 17.82 3.062 20.41 3 23 C2.67 23 2.34 23 2 23 C1.724 19.562 1.552 16.132 1.395 12.688 C1.296 10.79 1.152 8.894 1 7 C0.67 7 0.34 7 0 7 C0 4.69 0 2.38 0 0 Z " fill="#C2CEC8" transform="translate(657,22)"></path>
<path d="M0 0 C-3.293 1.967 -5.813 2.271 -9.625 2.25 C-10.587 2.255 -11.548 2.26 -12.539 2.266 C-15 2 -15 2 -17 0 C-14.73 -0.195 -12.459 -0.381 -10.188 -0.562 C-8.923 -0.667 -7.658 -0.771 -6.355 -0.879 C-3 -1 -3 -1 0 0 Z " fill="#A6ABA8" transform="translate(1495,453)"></path>
<path d="M0 0 C1 2 1 2 0.547 3.945 C0.284 4.665 0.021 5.384 -0.25 6.125 C-0.629 7.212 -0.629 7.212 -1.016 8.32 C-1.503 9.152 -1.503 9.152 -2 10 C-2.99 10 -3.98 10 -5 10 C-5.33 9.01 -5.66 8.02 -6 7 C-4.68 7 -3.36 7 -2 7 C-1.247 4.063 -1.247 4.063 -1 1 C-0.67 0.67 -0.34 0.34 0 0 Z M-11 3 C-9 4 -9 4 -9 4 Z " fill="#CCD6D1" transform="translate(198,443)"></path>
<path d="M0 0 C2 1 2 1 2 1 Z M-1 1 C-1 4 -1 4 -2.461 5.859 C-3.093 6.483 -3.724 7.107 -4.375 7.75 C-5.315 8.701 -5.315 8.701 -6.273 9.672 C-6.843 10.11 -7.413 10.548 -8 11 C-8.66 10.67 -9.32 10.34 -10 10 C-9.067 8.871 -8.129 7.747 -7.188 6.625 C-6.665 5.999 -6.143 5.372 -5.605 4.727 C-4 3 -4 3 -1 1 Z " fill="#C0CCC6" transform="translate(583,374)"></path>
<path d="M0 0 C4.486 0.656 8.69 1.621 13 3 C13 3.33 13 3.66 13 4 C10.848 4.422 10.848 4.422 8.062 4.75 C6.688 4.928 6.688 4.928 5.285 5.109 C4.531 5.073 3.777 5.037 3 5 C2.67 4.01 2.34 3.02 2 2 C1.34 1.34 0.68 0.68 0 0 Z " fill="#BBC4BF" transform="translate(709,458)"></path>
<path d="M0 0 C0.33 0.66 0.66 1.32 1 2 C0.546 2.66 0.092 3.32 -0.375 4 C-2.39 7.719 -2.533 10.817 -2.789 14.988 C-2.893 15.984 -2.893 15.984 -3 17 C-3.33 17 -3.66 17 -4 17 C-5.302 10.816 -5.002 7.558 -2 2 C-1.34 1.34 -0.68 0.68 0 0 Z " fill="#E1EAE5" transform="translate(264,484)"></path>
<path d="M0 0 C4.875 4.625 4.875 4.625 6 8 C2.063 6.688 -0.227 5.081 -3 2 C-2.34 2 -1.68 2 -1 2 C-0.67 1.34 -0.34 0.68 0 0 Z " fill="#BBC7C1" transform="translate(269,516)"></path>
<path d="M0 0 C0 3 0 3 -2.375 5.75 C-3.674 6.864 -3.674 6.864 -5 8 C-5.66 7.67 -6.32 7.34 -7 7 C-6.875 4.438 -6.875 4.438 -6 2 C-4.68 2 -3.36 2 -2 2 C-1.34 1.34 -0.68 0.68 0 0 Z " fill="#343434" transform="translate(1306,435)"></path>
<path d="M0 0 C0.66 0.33 1.32 0.66 2 1 C-1.3 4.3 -4.6 7.6 -8 11 C-8 6.678 -5.851 5.116 -3 2 C-2.01 1.34 -1.02 0.68 0 0 Z " fill="#BFC7C3" transform="translate(1627,183)"></path>
<path d="M0 0 C-0.33 0.99 -0.66 1.98 -1 3 C-2.926 3.766 -2.926 3.766 -5.312 4.25 C-6.482 4.505 -6.482 4.505 -7.676 4.766 C-10.077 5.008 -11.718 4.731 -14 4 C-12.42 3.325 -10.836 2.66 -9.25 2 C-8.368 1.629 -7.487 1.257 -6.578 0.875 C-4 0 -4 0 0 0 Z " fill="#525352" transform="translate(1197,308)"></path>
<path d="M0 0 C0.763 0.268 1.526 0.536 2.312 0.812 C2.312 1.473 2.312 2.132 2.312 2.812 C-0.011 3.514 -2.345 4.177 -4.688 4.812 C-6.172 5.803 -6.172 5.803 -7.688 6.812 C-4.493 -0.313 -4.493 -0.313 0 0 Z " fill="#D2DBD6" transform="translate(1178.6875,289.1875)"></path>
<path d="M0 0 C0.66 0.33 1.32 0.66 2 1 C1.031 1.866 0.061 2.732 -0.938 3.625 C-3.935 6.58 -4.696 8.74 -5 13 C-5.33 13 -5.66 13 -6 13 C-6.312 9.812 -6.312 9.812 -6 6 C-3.562 3.125 -3.562 3.125 -1 1 C-0.67 0.67 -0.34 0.34 0 0 Z " fill="#4F4F4F" transform="translate(799,173)"></path>
<path d="M0 0 C0.66 0.33 1.32 0.66 2 1 C1.05 2.505 0.09 4.004 -0.875 5.5 C-1.409 6.335 -1.942 7.171 -2.492 8.031 C-2.99 8.681 -3.487 9.331 -4 10 C-4.66 10 -5.32 10 -6 10 C-5.493 5.602 -2.954 3.098 0 0 Z " fill="#D1DBD6" transform="translate(172,265)"></path>
<path d="M0 0 C1.485 0.99 1.485 0.99 3 2 C3.293 4.164 3.293 4.164 3.188 6.625 C3.16 7.442 3.133 8.26 3.105 9.102 C3.071 9.728 3.036 10.355 3 11 C0.434 7.151 0.449 4.565 0 0 Z " fill="#5C5F5D" transform="translate(749,353)"></path>
<path d="M0 0 C0.66 0.33 1.32 0.66 2 1 C1.67 1.33 1.34 1.66 1 2 C2.32 2.66 3.64 3.32 5 4 C1.7 4 -1.6 4 -5 4 C-3 1 -3 1 0 0 Z " fill="#D5DED9" transform="translate(1163,284)"></path>
<path d="M0 0 C0.66 0.33 1.32 0.66 2 1 C0.02 1.99 0.02 1.99 -2 3 C-1.34 3.66 -0.68 4.32 0 5 C-2.438 5.688 -2.438 5.688 -5 6 C-5.33 5.01 -5.66 4.02 -6 3 C-3.188 1.25 -3.188 1.25 0 0 Z " fill="#B6BFBA" transform="translate(1653,457)"></path>
<path d="M0 0 C3.941 0.563 6.751 1.679 10 4 C10 4.66 10 5.32 10 6 C6.41 4.667 3.204 3.106 0 1 C0 0.67 0 0.34 0 0 Z " fill="#CBD6D1" transform="translate(174,73)"></path>
<path d="M0 0 C1 3 1 3 -0.312 6.625 C-2 10 -2 10 -4 11 C-3.523 9.541 -3.043 8.083 -2.562 6.625 C-2.296 5.813 -2.029 5.001 -1.754 4.164 C-1 2 -1 2 0 0 Z " fill="#ABBAB2" transform="translate(256,444)"></path>
<path d="M0 0 C2.815 1.408 3.613 3.226 5 6 C4.67 6.99 4.34 7.98 4 9 C1.477 7.026 1.007 6.033 0.312 2.812 C0.209 1.884 0.106 0.956 0 0 Z " fill="#CAD5CF" transform="translate(193,405)"></path>
<path d="M0 0 C-2.052 2.248 -3.007 3.002 -6 4 C-6.33 3.01 -6.66 2.02 -7 1 C-4.537 -0.231 -2.72 -0.072 0 0 Z " fill="#6C706E" transform="translate(1186,297)"></path>
<path d="M0 0 C3.391 1.13 4.188 2.01 6 5 C5.67 5.66 5.34 6.32 5 7 C2.5 5.188 2.5 5.188 0 3 C0 2.01 0 1.02 0 0 Z " fill="#CAD5CF" transform="translate(96,241)"></path>
<path d="M0 0 C1.98 0.66 3.96 1.32 6 2 C5.34 3.32 4.68 4.64 4 6 C2.68 4.02 1.36 2.04 0 0 Z " fill="#ACB5B1" transform="translate(1043,295)"></path>
<path d="M0 0 C0.66 0.66 1.32 1.32 2 2 C1.812 4.062 1.812 4.062 1 6 C0.01 6.33 -0.98 6.66 -2 7 C-1.34 4.69 -0.68 2.38 0 0 Z " fill="#D9E1DC" transform="translate(1860,289)"></path>
<path d="M0 0 C0.33 0.66 0.66 1.32 1 2 C0.01 3.485 0.01 3.485 -1 5 C-1.66 5 -2.32 5 -3 5 C-1.125 1.125 -1.125 1.125 0 0 Z " fill="#D8E1DC" transform="translate(264,484)"></path>
<path d="M0 0 C0.66 0.33 1.32 0.66 2 1 C2 1.66 2 2.32 2 3 C0.68 2.34 -0.64 1.68 -2 1 C-1.34 0.67 -0.68 0.34 0 0 Z " fill="#9DADA5" transform="translate(273,521)"></path>
<path d="M0 0 C1.32 0 2.64 0 4 0 C3.67 0.99 3.34 1.98 3 3 C1.68 2.34 0.36 1.68 -1 1 C-0.67 0.67 -0.34 0.34 0 0 Z " fill="#7B827E" transform="translate(1193,308)"></path>
<path d="M0 0 C0.99 0.33 1.98 0.66 3 1 C1.515 1.99 1.515 1.99 0 3 C-0.66 2.34 -1.32 1.68 -2 1 C-1.34 0.67 -0.68 0.34 0 0 Z " fill="#AAB4AF" transform="translate(1492,452)"></path>
<path d="M0 0 C0.66 0.33 1.32 0.66 2 1 C1.625 3.062 1.625 3.062 1 5 C-0.062 3.062 -0.062 3.062 -1 1 C-0.67 0.67 -0.34 0.34 0 0 Z " fill="#DAE3DE" transform="translate(1762,295)"></path>
<path d="M0 0 C0.66 0 1.32 0 2 0 C2 0.99 2 1.98 2 3 C1.01 2.67 0.02 2.34 -1 2 C-0.67 1.34 -0.34 0.68 0 0 Z " fill="#DFE8E3" transform="translate(1624,460)"></path>
</svg>